<?xml version="1.0"?>
<svg xmlns="http://www.w3.org/2000/svg" viewBox="0 0 16 16">
    <path style="line-height:normal;text-indent:0;text-align:start;text-decoration-line:none;text-decoration-style:solid;text-decoration-color:#000;text-transform:none;block-progression:tb;isolation:auto;mix-blend-mode:normal" d="M 3 3 C 2.4534686 3 2 3.4534686 2 4 L 2 6 L 1 7 L 4 7 L 13 7 C 13.546531 7 14 6.5465314 14 6 L 14 4 C 14 3.4534686 13.546531 3 13 3 L 3 3 z M 3 4 L 13 4 L 13 6 L 3 6 L 3 4 z M 3 8 C 2.4534686 8 2 8.4534686 2 9 L 2 11 L 1 12 L 3 12 L 4 12 L 13 12 C 13.546531 12 14 11.546531 14 11 L 14 9 C 14 8.4534686 13.546531 8 13 8 L 3 8 z M 3 9 L 13 9 L 13 11 L 3 11 L 3 9 z" font-weight="400" font-family="sans-serif" white-space="normal" overflow="visible"/>
</svg>
