<?xml version="1.0" encoding="iso-8859-1"?>
<!-- Generator: Adobe Illustrator 19.0.0, SVG Export Plug-In . SVG Version: 6.00 Build 0)  -->
<svg version="1.1" id="Layer_1" xmlns="http://www.w3.org/2000/svg" xmlns:xlink="http://www.w3.org/1999/xlink" x="0px" y="0px"
	 viewBox="0 0 299.97 299.97" style="enable-background:new 0 0 299.97 299.97;" xml:space="preserve">
<g>
	<g>
		<path d="M0,49.995v199.98h299.97V49.995H0z M154.506,93.555h59.796v51.48h-59.796V93.555z M154.506,154.935h59.796v51.48h-59.796
			V154.935z M9.9,155.001h11.154v-9.9H9.9v-0.066v-51.48h65.01v112.926H9.9V155.001z M144.606,240.075H9.9v-23.76h134.706V240.075z
			 M144.606,206.415H84.81v-51.48h59.796V206.415z M144.606,145.035H84.81v-51.48h59.796V145.035z M144.606,83.655H9.9v-23.76
			h134.706V83.655z M290.004,240.075L290.004,240.075H154.506v-23.76h135.498V240.075z M290.004,144.969L290.004,144.969H278.85v9.9
			h11.154v0.066v51.48h-65.802V93.489h65.802V144.969z M290.004,83.655L290.004,83.655H154.506v-23.76h135.498V83.655z"/>
	</g>
</g>
<g>
</g>
<g>
</g>
<g>
</g>
<g>
</g>
<g>
</g>
<g>
</g>
<g>
</g>
<g>
</g>
<g>
</g>
<g>
</g>
<g>
</g>
<g>
</g>
<g>
</g>
<g>
</g>
<g>
</g>
</svg>
