<?xml version="1.0" standalone="no"?>
<!DOCTYPE svg PUBLIC "-//W3C//DTD SVG 20010904//EN"
 "http://www.w3.org/TR/2001/REC-SVG-20010904/DTD/svg10.dtd">
<svg version="1.0" xmlns="http://www.w3.org/2000/svg"
 width="612.000000pt" height="612.000000pt" viewBox="0 0 612.000000 612.000000"
 preserveAspectRatio="xMidYMid meet">

<g transform="translate(0.000000,612.000000) scale(0.100000,-0.100000)"
fill="#000000" stroke="none">
<path d="M0 3060 l0 -3060 3060 0 3060 0 0 3060 0 3060 -3060 0 -3060 0 0
-3060z m3089 2168 c12 -40 27 -85 33 -100 l10 -28 109 0 c60 0 109 -3 109 -7
0 -5 -38 -35 -85 -67 -47 -33 -85 -64 -85 -69 0 -6 14 -53 30 -105 17 -52 29
-96 27 -98 -2 -2 -39 23 -83 56 -43 33 -86 59 -94 59 -8 0 -51 -26 -95 -59
-44 -33 -81 -56 -83 -52 -1 4 11 48 28 97 16 49 30 94 30 100 0 6 -38 38 -85
71 -47 32 -85 62 -85 67 0 4 49 7 109 7 l110 0 32 100 c19 55 36 100 39 100 3
0 16 -33 29 -72z m-808 -274 l56 -56 72 36 c39 20 71 32 71 26 0 -5 -16 -39
-36 -75 l-37 -67 59 -60 59 -61 -34 7 c-19 3 -58 9 -85 12 l-51 6 -34 -66
c-19 -36 -38 -66 -42 -66 -4 0 -10 30 -14 67 -4 36 -9 72 -12 79 -2 6 -28 15
-58 19 -29 3 -65 10 -81 14 -26 7 -23 9 48 43 l76 36 -5 44 c-3 23 -9 60 -13
81 -4 20 -5 37 -2 37 4 0 32 -25 63 -56z m1619 19 c-4 -21 -10 -58 -13 -81
l-5 -44 76 -36 c71 -34 74 -36 48 -43 -16 -4 -52 -11 -81 -14 -30 -4 -56 -13
-59 -20 -3 -8 -8 -41 -12 -75 -4 -33 -10 -63 -15 -66 -5 -3 -23 25 -41 62
l-33 66 -51 -6 c-27 -3 -66 -9 -85 -12 l-34 -7 59 61 58 60 -41 76 c-24 42
-40 76 -37 76 3 0 37 -16 77 -36 l72 -36 56 56 c31 31 59 56 62 56 4 0 3 -17
-1 -37z m-1754 -642 c233 -45 484 -269 619 -553 62 -132 92 -256 104 -435 18
-269 99 -594 197 -787 19 -38 33 -70 32 -71 -2 0 -24 -18 -49 -38 -25 -20 -50
-37 -56 -37 -5 0 -22 14 -39 31 -90 97 -470 302 -674 365 -246 75 -353 128
-484 240 -220 188 -352 420 -372 656 -13 149 55 317 176 437 161 159 356 228
546 192z m2073 -11 c85 -24 114 -38 196 -93 270 -182 352 -482 214 -785 -68
-151 -208 -324 -345 -427 -125 -95 -228 -144 -419 -200 -194 -57 -558 -245
-671 -347 -21 -19 -21 -18 -57 21 -20 22 -43 53 -51 69 -14 28 -14 34 10 93
64 157 128 418 144 588 23 255 32 311 56 392 105 339 396 644 669 699 75 15
178 11 254 -10z m-1035 -1917 l59 -76 -24 -19 c-22 -18 -22 -18 -2 -9 12 6 26
11 30 11 15 0 144 -170 138 -180 -4 -6 0 -10 7 -10 7 0 28 -18 46 -40 l33 -39
-48 -25 c-26 -14 -44 -25 -40 -26 4 0 26 9 48 21 45 22 53 19 91 -33 20 -28
20 -30 2 -44 -18 -14 -18 -15 2 -5 19 9 27 5 59 -34 20 -25 33 -45 30 -45 -4
0 16 -19 43 -42 l51 -43 -32 -17 c-18 -9 -27 -17 -22 -17 6 0 21 6 35 14 35
20 42 18 38 -7 -4 -26 -115 -120 -138 -116 -8 2 -26 25 -40 51 -21 40 -110
162 -145 201 -13 13 -339 425 -378 478 l-28 36 56 46 c31 25 60 46 63 46 4 -1
33 -35 66 -77z m-204 -22 c0 -4 15 -25 34 -47 l34 -40 -35 -45 c-19 -24 -44
-55 -56 -69 -12 -14 -35 -43 -51 -65 -17 -22 -33 -42 -36 -45 -3 -3 -21 -25
-40 -50 -19 -25 -37 -47 -40 -50 -3 -3 -19 -23 -35 -45 -16 -22 -35 -47 -42
-55 -77 -93 -127 -162 -143 -198 -10 -23 -26 -45 -34 -48 -24 -9 -146 84 -146
112 0 6 24 32 54 58 38 32 60 44 73 40 17 -6 17 -6 1 7 -16 13 -15 17 18 56
l35 43 32 -16 c28 -13 30 -13 13 0 -10 8 -24 17 -30 19 -15 5 48 82 65 81 8
-1 23 -5 34 -9 11 -3 8 1 -8 10 l-27 16 32 40 c19 24 38 38 48 36 8 -3 24 -8
35 -12 11 -3 8 1 -7 10 -16 8 -28 18 -28 21 0 13 134 174 144 174 6 -1 22 -7
36 -15 14 -8 30 -14 35 -14 6 0 -7 9 -27 20 -21 11 -38 22 -38 25 0 4 14 24
31 45 26 33 34 37 50 29 10 -6 19 -14 19 -19z m100 -470 c0 -12 -67 -101 -89
-119 -9 -7 -34 -22 -55 -33 l-39 -21 6 43 c6 49 30 85 77 117 33 22 100 31
100 13z m96 -43 c12 -12 25 -33 28 -45 6 -19 1 -25 -28 -37 -45 -19 -123 -97
-141 -141 -20 -46 -52 -37 -103 29 -28 37 -28 52 2 60 37 9 122 92 146 141 21
44 22 44 48 31 15 -8 37 -25 48 -38z m-1519 -146 c43 -43 91 -88 107 -100 l29
-22 -27 -40 c-14 -22 -28 -40 -31 -40 -2 0 -1 22 2 49 5 43 3 50 -18 65 -24
17 -24 17 -127 -89 -89 -92 -101 -108 -92 -125 18 -34 -4 -22 -55 31 -38 39
-45 50 -27 44 19 -6 37 8 120 95 53 57 97 107 97 113 0 5 -12 19 -28 31 -24
18 -31 19 -59 8 -17 -6 -34 -9 -37 -7 -3 4 56 62 66 65 1 0 37 -35 80 -78z
m1558 19 c-7 -41 -39 -93 -69 -111 -28 -18 -95 -30 -102 -19 -18 29 141 189
169 172 5 -3 6 -22 2 -42z m1354 -22 c17 -16 22 -30 19 -54 -4 -32 -3 -33 29
-28 51 9 79 -3 97 -41 29 -62 7 -103 -118 -216 -33 -30 -37 -32 -32 -13 9 29
-2 44 -105 150 -69 70 -87 83 -106 78 -13 -3 -23 -2 -22 2 0 5 34 38 75 76 84
75 121 85 163 46z m-249 -149 c0 -5 -4 -10 -10 -10 -22 0 -8 -40 41 -121 62
-101 72 -151 40 -203 -23 -37 -91 -76 -132 -76 -38 0 -87 42 -136 117 -60 91
-73 104 -95 97 -36 -11 -16 12 44 49 33 21 63 35 67 31 3 -4 0 -9 -6 -11 -7
-3 -13 -11 -13 -19 0 -22 108 -182 130 -194 58 -31 130 6 130 67 0 40 -7 55
-68 146 -33 51 -50 68 -66 66 -41 -3 -40 1 9 35 53 37 65 42 65 26z m-2307
-129 c9 -9 -12 -71 -24 -71 -5 0 -9 16 -9 34 0 28 -7 40 -36 63 l-37 27 -27
-32 c-15 -18 -33 -44 -41 -58 -12 -24 -11 -27 11 -45 17 -13 34 -18 53 -14 33
6 33 4 5 -40 -25 -38 -43 -47 -33 -16 6 20 -35 61 -60 61 -7 0 -28 -23 -46
-51 l-33 -52 33 -29 c34 -31 51 -32 121 -13 23 6 22 4 -10 -24 -19 -17 -40
-29 -47 -26 -25 9 -203 129 -203 137 0 5 10 6 23 3 21 -6 32 7 101 109 63 93
77 121 72 141 -6 23 2 20 86 -36 51 -33 96 -64 101 -68z m127 -74 c45 -18 46
-19 58 -80 18 -92 53 -201 61 -191 14 16 61 135 61 154 0 11 -7 23 -16 28 -9
5 -13 11 -8 14 5 3 34 -7 64 -21 51 -24 53 -26 27 -29 -26 -3 -34 -15 -83
-119 -30 -63 -57 -126 -60 -139 -13 -53 -31 -19 -74 141 -25 91 -47 165 -50
165 -8 0 -90 -193 -90 -212 0 -9 8 -21 17 -27 10 -5 16 -11 13 -14 -3 -2 -32
9 -65 24 -47 22 -55 28 -34 29 34 0 38 6 93 131 49 113 54 137 34 158 -7 8 -8
12 -3 10 6 -2 30 -12 55 -22z m1728 -64 c-18 -21 -19 -19 39 -153 59 -137 61
-138 113 -115 45 20 60 40 60 79 0 14 4 26 9 26 13 0 19 -80 6 -89 -5 -5 -44
-23 -85 -41 -41 -18 -88 -38 -104 -46 -34 -16 -48 -10 -21 10 17 12 15 20 -42
147 -52 117 -62 134 -81 132 -39 -5 -24 12 36 39 71 32 92 35 70 11z m-1310
-103 c10 -29 113 -232 117 -229 6 7 35 139 35 164 0 15 -7 26 -20 30 -11 4
-18 10 -16 14 3 4 33 1 68 -8 48 -12 56 -17 36 -19 -22 -3 -30 -10 -38 -41
-12 -44 -60 -257 -60 -265 0 -3 -4 -6 -10 -6 -5 0 -46 71 -89 158 -44 86 -80
154 -80 151 -1 -4 -13 -57 -27 -120 l-25 -113 23 -19 23 -19 -25 7 c-14 3 -42
9 -62 12 -42 6 -52 23 -14 23 29 0 27 -4 61 155 l26 120 -20 17 c-12 9 -21 18
-21 21 0 9 115 -23 118 -33z m1142 0 c24 -46 19 -50 -22 -15 -67 56 -168 6
-168 -84 0 -50 30 -129 60 -160 61 -60 149 -45 172 30 14 50 30 50 26 2 -3
-35 -8 -40 -57 -65 -60 -31 -114 -35 -164 -14 -95 40 -131 136 -88 232 23 50
68 84 135 100 79 19 84 18 106 -26z m-765 -49 c39 -5 45 -8 29 -14 -25 -9 -30
-31 -40 -190 -6 -99 -5 -109 12 -122 17 -13 11 -13 -51 -8 -76 6 -90 11 -59
19 19 5 22 18 32 147 11 138 11 142 -9 160 -21 17 -21 17 7 16 16 0 52 -4 79
-8z m288 -11 c5 -4 7 -25 5 -46 l-3 -39 -22 37 c-38 65 -108 60 -101 -6 2 -25
14 -38 63 -71 63 -43 99 -95 89 -130 -3 -11 -19 -32 -35 -47 -26 -25 -37 -28
-94 -28 -73 0 -89 14 -83 73 l3 32 15 -29 c24 -47 65 -72 97 -60 15 5 29 18
31 27 8 42 -9 67 -72 107 -40 25 -68 51 -76 69 -30 73 37 137 130 125 25 -3
49 -9 53 -14z"/>
<path d="M1962 4283 c-10 -4 -10 -8 0 -21 11 -15 10 -15 -8 0 -24 21 -68 14
-59 -10 4 -11 2 -12 -8 -4 -13 11 -57 6 -57 -7 0 -4 6 -13 13 -20 10 -11 8
-11 -10 0 -19 12 -27 10 -65 -10 -24 -13 -45 -25 -47 -27 -2 -2 11 -22 29 -46
l32 -43 -36 40 c-33 38 -36 39 -52 23 -19 -18 -21 -12 37 -93 12 -17 6 -13
-14 10 -20 22 -36 43 -37 48 0 13 -27 8 -40 -8 -10 -13 -9 -19 6 -38 l19 -22
-23 20 -24 20 -24 -30 c-14 -17 -36 -49 -50 -73 -22 -37 -24 -46 -12 -60 11
-15 11 -16 -3 -4 -15 11 -18 9 -27 -17 -7 -21 -7 -32 1 -41 9 -10 9 -11 1 -7
-12 7 -24 -13 -24 -40 0 -13 2 -13 17 -2 15 13 15 12 2 -8 -8 -13 -17 -23 -21
-23 -5 0 -8 -14 -8 -31 0 -21 4 -28 13 -23 9 6 9 4 2 -7 -14 -19 -19 -69 -7
-69 6 0 8 -9 5 -20 -6 -22 32 -156 47 -165 6 -3 10 -13 10 -22 0 -8 14 -35 30
-60 17 -24 30 -48 30 -52 0 -19 26 -31 40 -18 12 10 12 9 1 -5 -11 -15 -11
-22 5 -45 34 -53 214 -225 229 -220 8 4 12 1 9 -6 -2 -7 5 -18 17 -25 17 -11
24 -11 37 0 15 12 16 11 3 -4 -11 -15 -10 -19 13 -29 22 -10 29 -9 46 6 16 15
18 21 7 34 -11 14 -10 14 6 2 15 -12 20 -11 41 8 19 18 24 20 29 7 4 -9 1 -13
-6 -11 -15 6 -95 -60 -85 -70 4 -4 18 -8 31 -9 14 0 23 -4 20 -9 -5 -9 39 -27
51 -20 4 3 12 0 16 -6 7 -12 79 -35 150 -49 66 -13 203 -7 255 12 113 39 192
108 242 207 41 84 46 99 32 115 -10 12 -8 13 6 8 15 -6 17 -2 13 34 -2 23 -1
42 3 42 4 0 7 37 7 82 0 68 -3 87 -21 113 -18 26 -19 28 -2 15 17 -14 18 -13
11 10 -14 49 -19 75 -20 98 -1 12 -4 22 -8 22 -5 0 -8 6 -8 13 0 7 -9 29 -19
50 -10 20 -22 48 -25 62 -4 16 -11 23 -18 19 -6 -4 -8 -3 -5 3 7 11 -40 103
-52 103 -4 0 -13 -6 -20 -12 -11 -11 -11 -9 -1 7 10 18 9 26 -11 55 -13 19
-36 49 -51 65 -14 17 -35 41 -46 55 -18 22 -22 23 -38 10 -18 -14 -18 -14 -4
3 13 17 11 22 -25 53 -22 19 -45 32 -52 30 -7 -3 -10 0 -7 7 2 7 -19 25 -47
41 l-51 28 -21 -20 c-18 -18 -19 -23 -6 -39 13 -17 13 -17 -7 -1 -11 10 -25
14 -30 10 -5 -4 6 7 26 24 l34 31 -48 22 c-56 24 -60 25 -50 10 3 -6 -4 -4
-17 4 -51 32 -103 29 -64 -3 12 -10 18 -10 33 1 16 13 16 13 2 -6 -8 -11 -15
-22 -17 -24 -1 -2 -14 11 -28 28 -24 28 -32 31 -78 30 -29 0 -58 -3 -65 -6z
m89 -35 c16 -22 17 -28 6 -19 -14 11 -20 11 -34 0 -17 -13 -17 -13 -1 7 14 16
15 23 6 32 -7 7 -9 12 -6 12 4 0 17 -15 29 -32z m175 -17 c0 -11 -5 -17 -13
-14 -17 6 -17 20 0 26 6 3 12 6 12 6 1 1 1 -7 1 -18z m-182 -53 c4 6 21 21 39
34 21 15 27 17 18 5 -11 -14 -11 -20 0 -34 12 -17 12 -17 -6 -1 -17 16 -20 15
-61 -18 l-43 -36 51 -64 c34 -42 57 -63 66 -59 12 4 12 2 3 -8 -8 -11 -6 -18
10 -33 21 -19 21 -18 40 5 11 13 22 21 26 18 3 -4 -6 -16 -21 -28 -26 -20 -26
-22 -10 -40 14 -15 20 -17 33 -7 10 8 9 4 -3 -10 l-19 -22 -12 22 c-6 13 -19
22 -28 22 -13 -2 -15 1 -7 11 12 14 -21 50 -35 38 -4 -5 -5 -2 -1 4 9 16 -54
95 -70 89 -8 -3 -11 1 -7 10 3 8 -11 33 -31 58 -25 31 -33 47 -25 52 7 4 9 3
6 -3 -4 -6 3 -19 14 -28 18 -17 21 -17 36 -2 14 13 14 19 3 32 -7 9 -20 13
-28 10 -11 -4 -12 -2 -4 8 6 7 8 18 4 23 -4 5 7 -6 24 -24 19 -21 34 -30 38
-24z m-113 25 c13 -16 12 -17 -3 -4 -10 7 -18 15 -18 17 0 8 8 3 21 -13z m241
0 c2 1 -8 -10 -24 -24 -23 -20 -25 -28 -15 -39 10 -12 9 -12 -4 -2 -9 6 -18
11 -21 9 -2 -1 8 10 24 24 23 20 25 28 15 39 -10 12 -9 12 4 2 9 -6 18 -11 21
-9z m-377 -23 c10 -11 16 -20 13 -20 -3 0 -13 9 -23 20 -10 11 -16 20 -13 20
3 0 13 -9 23 -20z m76 3 c13 -16 12 -17 -3 -4 -10 7 -18 15 -18 17 0 8 8 3 21
-13z m35 -45 c10 -12 13 -18 6 -14 -8 5 -28 -3 -50 -20 -20 -15 -31 -21 -25
-14 10 11 9 19 -10 39 l-22 26 26 -22 c22 -20 28 -21 44 -9 10 7 15 18 11 24
-12 19 -1 14 20 -10z m304 14 c0 -4 -10 -13 -22 -21 -23 -14 -23 -14 -4 8 20
22 26 25 26 13z m-131 -17 c6 3 8 0 5 -9 -3 -8 -12 -17 -20 -20 -9 -3 -12 -1
-9 5 4 5 1 18 -7 27 -12 15 -11 16 4 4 9 -8 22 -11 27 -7z m218 8 c-4 -3 -1
-13 5 -22 10 -13 10 -14 -1 -4 -7 6 -21 9 -30 6 -11 -4 -10 -1 4 10 20 16 34
23 22 10z m83 -6 c0 -2 -10 -12 -22 -23 l-23 -19 19 23 c18 21 26 27 26 19z
m-422 -36 c-7 -11 -16 -17 -21 -14 -4 3 0 11 10 19 24 18 25 17 11 -5z m212
-6 c14 -19 14 -19 -4 -5 -16 13 -20 12 -35 -6 -9 -11 -25 -23 -35 -27 -15 -6
-17 -5 -8 6 7 8 9 17 5 21 -4 4 0 4 8 1 9 -3 23 3 34 15 10 11 19 19 19 18 1
-2 8 -12 16 -23z m80 4 c0 -14 -17 -10 -23 5 -4 10 -1 13 9 9 7 -3 14 -9 14
-14z m190 8 c0 -2 -10 -12 -22 -23 l-23 -19 19 23 c18 21 26 27 26 19z m-131
-36 c-75 -59 -74 -58 -60 -75 8 -9 21 -14 29 -11 12 4 13 3 2 -10 -11 -13 -15
-12 -32 10 -12 16 -25 23 -32 18 -7 -4 3 5 21 21 29 24 32 31 21 45 -12 14
-11 15 5 2 16 -13 21 -12 39 7 12 12 24 19 26 17 3 -3 -6 -13 -19 -24z m-500
-4 c8 -10 7 -14 -2 -14 -8 0 -14 6 -14 14 0 7 1 13 2 13 2 0 8 -6 14 -13z
m111 9 c0 -3 -15 -14 -32 -26 l-33 -22 30 26 c31 27 35 29 35 22z m285 -6 c-4
-6 -1 -18 7 -27 12 -15 11 -15 -9 -2 -26 16 -29 25 -10 32 18 8 19 8 12 -3z
m-218 -23 c0 -8 -6 -14 -14 -14 -9 0 -10 4 -2 14 6 7 12 13 14 13 1 0 2 -6 2
-13z m386 -4 c-4 -10 -9 -11 -19 -2 -18 15 -18 15 5 15 11 0 17 -5 14 -13z
m-220 -6 c4 3 7 4 7 1 0 -3 -8 -12 -17 -19 -10 -7 -15 -9 -11 -5 4 5 2 16 -5
25 -10 14 -10 14 4 4 9 -7 19 -10 22 -6z m-462 -14 c13 -16 12 -17 -3 -4 -17
13 -22 21 -14 21 2 0 10 -8 17 -17z m79 9 c0 -4 -10 -13 -22 -21 -23 -14 -23
-14 -4 8 20 22 26 25 26 13z m155 -12 c10 -11 14 -20 9 -20 -5 0 -15 9 -22 20
-7 11 -11 20 -9 20 2 0 12 -9 22 -20z m525 16 c0 -2 -8 -10 -17 -17 -16 -13
-17 -12 -4 4 13 16 21 21 21 13z m-627 -42 c-14 -14 -26 -24 -27 -22 -1 2 -8
12 -16 23 -14 19 -14 19 4 5 17 -13 20 -13 35 7 9 11 19 19 23 17 4 -3 -5 -16
-19 -30z m506 29 c14 11 14 10 2 -6 -10 -13 -17 -15 -27 -6 -8 6 -14 14 -14
17 0 3 5 1 12 -6 9 -9 15 -9 27 1z m-300 -10 c14 10 14 10 4 -4 -7 -9 -9 -20
-5 -24 4 -5 1 -5 -6 -1 -8 5 -21 1 -33 -10 -16 -14 -17 -20 -6 -33 11 -14 10
-14 -5 -3 -10 8 -23 10 -30 6 -10 -6 -11 -5 -1 7 10 12 10 18 0 29 -10 12 -9
12 6 1 14 -11 20 -11 32 -1 9 7 13 20 10 29 -5 13 -4 13 6 4 10 -10 16 -10 28
0z m-306 -26 c3 -7 -3 -13 -13 -13 -10 0 -16 6 -13 13 3 7 9 13 13 13 4 0 10
-6 13 -13z m688 -4 c13 -16 12 -17 -3 -4 -17 13 -22 21 -14 21 2 0 10 -8 17
-17z m69 3 c0 -2 -8 -10 -17 -17 -16 -13 -17 -12 -4 4 13 16 21 21 21 13z
m-821 -19 c8 -11 6 -18 -12 -33 -22 -19 -22 -19 -5 2 14 16 15 23 6 32 -7 7
-9 12 -6 12 3 0 11 -6 17 -13z m234 0 c3 -7 -3 -13 -14 -13 -13 0 -15 3 -7 13
6 7 12 13 13 13 2 0 5 -6 8 -13z m173 -16 c0 -11 -5 -17 -13 -14 -17 6 -17 20
0 26 6 3 12 6 12 6 1 1 1 -7 1 -18z m294 11 c0 -4 -9 -13 -20 -20 -19 -12 -20
-11 -8 8 13 20 28 27 28 12z m-595 -12 c-4 -6 -1 -19 6 -28 12 -15 11 -15 -6
0 -18 17 -20 17 -40 -2 l-22 -20 -18 22 c-19 22 -19 23 -1 6 18 -16 21 -16 48
7 31 26 43 32 33 15z m64 -4 c9 -11 9 -16 -1 -22 -7 -4 -10 -4 -6 1 4 4 3 14
-3 22 -6 7 -9 13 -6 13 2 0 10 -6 16 -14z m615 -2 c3 -8 2 -12 -4 -9 -6 3 -10
10 -10 16 0 14 7 11 14 -7z m96 12 c0 -2 -8 -10 -17 -17 -16 -13 -17 -12 -4 4
13 16 21 21 21 13z m-310 -21 c-7 -9 -15 -13 -19 -10 -3 3 1 10 9 15 21 14 24
12 10 -5z m-296 -21 c7 -19 2 -18 -19 6 -16 17 -16 20 -3 15 9 -4 19 -13 22
-21z m474 17 c14 11 13 9 -2 -9 -11 -12 -20 -21 -20 -20 -1 2 -8 12 -16 23
-14 19 -14 19 3 6 14 -11 20 -11 35 0z m-94 -17 c3 -9 2 -12 -5 -9 -5 4 -17 1
-26 -7 -15 -12 -15 -11 -2 10 16 26 25 28 33 6z m286 12 c0 -2 -8 -10 -17 -17
-16 -13 -17 -12 -4 4 13 16 21 21 21 13z m-969 -23 c11 -15 11 -16 -1 -6 -11
10 -17 10 -29 0 -14 -11 -14 -10 -2 6 7 9 15 17 16 17 1 0 9 -8 16 -17z m253
-8 c13 10 -10 -11 -39 -35 l-30 -25 24 27 c14 17 20 31 15 40 -6 10 -5 11 8 1
8 -7 18 -11 22 -8z m212 3 c4 -6 3 -8 -3 -5 -6 4 -16 0 -24 -9 -16 -20 -54
-41 -44 -25 4 7 1 20 -6 29 -12 15 -11 15 7 -1 20 -16 22 -16 39 3 21 23 22
24 31 8z m387 -1 c3 -7 -3 -13 -13 -13 -10 0 -16 6 -13 13 3 7 9 13 13 13 4 0
10 -6 13 -13z m-793 0 c0 -2 -10 -12 -22 -23 l-23 -19 19 23 c18 21 26 27 26
19z m110 -5 c0 -5 -7 -9 -15 -9 -8 0 -12 4 -9 9 3 4 9 8 15 8 5 0 9 -4 9 -8z
m454 -1 c3 -5 -2 -15 -12 -22 -15 -12 -16 -12 -5 2 7 9 10 19 6 22 -3 4 -4 7
0 7 3 0 8 -4 11 -9z m-680 -10 c3 -5 -1 -11 -9 -14 -9 -4 -12 -1 -8 9 6 16 10
17 17 5z m387 -8 c13 -16 12 -17 -3 -4 -10 7 -18 15 -18 17 0 8 8 3 21 -13z
m-221 -8 c7 -9 8 -15 2 -15 -5 0 -12 7 -16 15 -3 8 -4 15 -2 15 2 0 9 -7 16
-15z m461 -27 c-11 -11 -13 -10 -7 0 4 7 2 21 -5 30 -12 15 -11 15 6 0 16 -15
17 -20 6 -30z m195 -28 c31 -38 60 -67 65 -64 17 10 9 -3 -13 -22 -13 -10 -18
-12 -11 -5 10 11 0 28 -48 87 -33 41 -58 74 -55 74 3 0 31 -31 62 -70z m41 53
c0 -9 -4 -10 -14 -2 -7 6 -13 12 -13 14 0 1 6 2 13 2 8 0 14 -6 14 -14z m-812
-23 c-10 -11 -21 -18 -23 -15 -3 3 3 12 14 20 27 20 30 18 9 -5z m293 -4 c-2
-1 -12 -8 -23 -16 -18 -14 -19 -14 -7 2 8 10 10 23 6 30 -6 9 -3 9 9 -1 10 -8
16 -14 15 -15z m393 11 c-6 -8 -7 -18 -3 -22 4 -5 1 -5 -6 -1 -10 6 -10 11 -1
22 6 8 14 14 16 14 3 0 0 -6 -6 -13z m-773 -17 c7 -11 11 -20 9 -20 -2 0 -12
9 -22 20 -10 11 -14 20 -9 20 5 0 15 -9 22 -20z m554 6 c9 6 9 3 -1 -9 -8 -10
-14 -16 -15 -15 -1 2 -8 12 -16 23 -14 18 -14 19 2 7 10 -8 23 -10 30 -6z
m-317 -16 c10 -11 16 -20 13 -20 -3 0 -13 9 -23 20 -10 11 -16 20 -13 20 3 0
13 -9 23 -20z m230 0 c10 -11 16 -20 13 -20 -3 0 -13 9 -23 20 -10 11 -16 20
-13 20 3 0 13 -9 23 -20z m456 3 c13 -16 12 -17 -3 -4 -10 7 -18 15 -18 17 0
8 8 3 21 -13z m-761 -3 c0 -5 -5 -10 -11 -10 -5 0 -7 5 -4 10 3 6 8 10 11 10
2 0 4 -4 4 -10z m478 -20 c11 -19 11 -19 -8 -8 -11 7 -22 18 -24 25 -8 19 18
5 32 -17z m90 21 c16 13 16 13 0 -7 -14 -16 -15 -23 -6 -32 7 -7 9 -12 6 -12
-4 0 -17 15 -29 33 -16 21 -17 27 -6 18 14 -11 20 -11 35 0z m-341 -51 c-12
-15 -26 -25 -30 -23 -4 3 4 14 18 25 22 17 24 23 13 37 -12 14 -11 15 4 2 17
-12 16 -15 -5 -41z m630 35 c0 -8 -4 -12 -9 -9 -4 3 -8 9 -8 15 0 5 4 9 8 9 5
0 9 -7 9 -15z m-982 -5 c-4 -6 -1 -18 7 -27 12 -15 11 -15 -9 -2 -26 16 -29
25 -10 32 18 8 19 8 12 -3z m303 -10 c7 -11 11 -20 9 -20 -2 0 -12 9 -22 20
-10 11 -14 20 -9 20 5 0 15 -9 22 -20z m-128 -5 c-6 -8 -8 -20 -4 -27 5 -10 4
-11 -6 -1 -11 10 -18 9 -36 -8 -17 -16 -24 -18 -30 -7 -4 7 -4 10 1 6 4 -4 24
6 44 22 39 33 50 38 31 15z m361 -2 c13 -16 12 -17 -3 -4 -17 13 -22 21 -14
21 2 0 10 -8 17 -17z m223 8 c3 -5 -1 -11 -9 -14 -9 -4 -12 -1 -8 9 6 16 10
17 17 5z m-299 -11 c3 -5 1 -10 -4 -10 -6 0 -11 5 -11 10 0 6 2 10 4 10 3 0 8
-4 11 -10z m180 -10 c-10 -11 -21 -18 -23 -15 -3 3 3 12 14 20 27 20 30 18 9
-5z m299 5 c-4 -8 -11 -12 -16 -9 -6 4 -5 10 3 15 19 12 19 11 13 -6z m-974 1
c0 -2 -8 -10 -17 -17 -16 -13 -17 -12 -4 4 13 16 21 21 21 13z m290 0 c0 -2
-8 -10 -17 -17 -16 -13 -17 -12 -4 4 13 16 21 21 21 13z m775 -6 c-3 -5 -16
-15 -28 -21 -19 -9 -19 -8 3 10 28 23 34 26 25 11z m-315 -14 c0 -2 -8 -10
-17 -17 -16 -13 -17 -12 -4 4 13 16 21 21 21 13z m-670 -28 c16 -20 20 -21 36
-8 18 14 18 14 0 -7 l-19 -22 -19 25 c-17 21 -23 23 -37 12 -14 -12 -15 -11
-2 5 17 22 19 22 41 -5z m549 15 c14 11 14 10 2 -6 -10 -13 -17 -15 -27 -6 -8
6 -14 14 -14 17 0 3 5 1 12 -6 9 -9 15 -9 27 1z m212 -10 c13 -16 12 -17 -3
-4 -10 7 -18 15 -18 17 0 8 8 3 21 -13z m-523 -17 c-2 -1 -14 -11 -28 -23
l-26 -22 -13 22 c-13 20 -13 21 2 8 14 -11 20 -11 32 -1 9 7 13 20 10 28 -4
12 -3 13 10 2 9 -7 14 -13 13 -14z m227 7 c5 -14 4 -15 -6 -6 -10 10 -16 10
-28 0 -14 -11 -14 -10 -2 6 7 9 17 17 21 17 4 0 11 -8 15 -17z m154 -6 c8 -10
7 -14 -2 -14 -8 0 -14 6 -14 14 0 7 1 13 2 13 2 0 8 -6 14 -13z m301 9 c0 -2
-8 -10 -17 -17 -16 -13 -17 -12 -4 4 13 16 21 21 21 13z m-976 -22 c5 -14 4
-15 -9 -4 -17 14 -19 20 -6 20 5 0 12 -7 15 -16z m1066 6 c0 -5 -2 -10 -4 -10
-3 0 -8 5 -11 10 -3 6 -1 10 4 10 6 0 11 -4 11 -10z m-900 -21 c0 -14 -17 -10
-23 5 -4 10 -1 13 9 9 7 -3 14 -9 14 -14z m221 4 c13 -16 12 -17 -3 -4 -10 7
-18 15 -18 17 0 8 8 3 21 -13z m79 3 c0 -2 -7 -7 -16 -10 -8 -3 -12 -2 -9 4 6
10 25 14 25 6z m160 -11 c7 -9 8 -15 2 -15 -5 0 -12 7 -16 15 -3 8 -4 15 -2
15 2 0 9 -7 16 -15z m-680 -15 c6 -11 8 -20 6 -20 -3 0 -10 9 -16 20 -6 11 -8
20 -6 20 3 0 10 -9 16 -20z m378 -5 c-3 -3 -9 2 -12 12 -6 14 -5 15 5 6 7 -7
10 -15 7 -18z m-213 -4 c3 -5 2 -12 -3 -15 -5 -3 -9 1 -9 9 0 17 3 19 12 6z
m315 -16 c14 -19 14 -19 -2 -6 -15 11 -21 11 -35 0 -15 -11 -14 -9 1 9 11 12
20 21 20 20 1 -2 8 -12 16 -23z m289 22 c-2 -1 -13 -9 -24 -17 -19 -14 -19
-14 -6 3 7 9 18 17 24 17 6 0 8 -1 6 -3z m91 -6 c0 -5 -7 -12 -16 -15 -14 -5
-15 -4 -4 9 14 17 20 19 20 6z m299 6 c-2 -1 -13 -9 -24 -17 -19 -14 -19 -14
-6 3 7 9 18 17 24 17 6 0 8 -1 6 -3z m-899 -29 c0 -6 -6 -5 -15 2 -8 7 -15 14
-15 16 0 2 7 1 15 -2 8 -4 15 -11 15 -16z m386 -5 c14 -23 15 -26 1 -15 -9 8
-22 10 -29 6 -10 -6 -11 -5 -1 8 7 8 10 18 6 21 -3 4 -4 7 -1 7 3 0 14 -12 24
-27z m63 13 c9 -10 7 -17 -6 -27 -16 -12 -17 -12 -6 2 10 12 10 18 1 27 -7 7
-9 12 -6 12 3 0 11 -6 17 -14z m480 -30 c-3 -3 -11 5 -18 17 -13 21 -12 21 5
5 10 -10 16 -20 13 -22z m-839 -1 c14 -19 14 -19 -2 -6 -10 7 -18 18 -18 24 0
6 1 8 3 6 1 -2 9 -13 17 -24z m539 -9 c-3 -3 -11 5 -18 17 -13 21 -12 21 5 5
10 -10 16 -20 13 -22z m221 24 c0 -5 -4 -10 -10 -10 -5 0 -10 5 -10 10 0 6 5
10 10 10 6 0 10 -4 10 -10z m-595 -10 c-3 -5 -12 -10 -18 -10 -7 0 -6 4 3 10
19 12 23 12 15 0z m295 0 c0 -5 -5 -10 -11 -10 -5 0 -7 5 -4 10 3 6 8 10 11
10 2 0 4 -4 4 -10z m180 -5 c-6 -8 -8 -20 -4 -27 6 -10 3 -9 -9 1 -16 13 -16
14 0 27 24 18 28 17 13 -1z m-775 -5 c-3 -5 -12 -10 -18 -10 -7 0 -6 4 3 10
19 12 23 12 15 0z m66 -7 c13 -16 12 -17 -3 -4 -17 13 -22 21 -14 21 2 0 10
-8 17 -17z m-220 -35 c-11 -11 -13 -10 -7 0 4 7 2 21 -5 30 -12 15 -11 15 6 0
16 -15 17 -20 6 -30z m404 20 c5 4 5 1 1 -6 -6 -10 -11 -10 -22 -1 -8 6 -14
14 -14 16 0 3 6 0 13 -6 8 -6 18 -7 22 -3z m690 2 c-3 -5 -12 -10 -18 -10 -7
0 -6 4 3 10 19 12 23 12 15 0z m-774 -17 c11 -15 11 -16 -1 -6 -11 10 -17 10
-29 0 -14 -11 -14 -10 -2 6 7 9 15 17 16 17 1 0 9 -8 16 -17z m-221 -3 c0 -5
-5 -10 -11 -10 -5 0 -7 5 -4 10 3 6 8 10 11 10 2 0 4 -4 4 -10z m480 -5 c-7
-8 -17 -15 -23 -15 -6 0 -2 7 9 15 25 19 30 19 14 0z m600 -10 c14 -18 14 -19
-2 -7 -10 8 -23 10 -30 6 -9 -6 -9 -3 1 9 8 10 14 16 15 15 1 -2 8 -12 16 -23z
m-691 12 c-2 -1 -13 -9 -24 -17 -19 -14 -19 -14 -6 3 7 9 18 17 24 17 6 0 8
-1 6 -3z m561 -12 c-7 -8 -17 -15 -23 -15 -6 0 -2 7 9 15 25 19 30 19 14 0z
m-785 -5 c3 -5 1 -10 -4 -10 -6 0 -11 5 -11 10 0 6 2 10 4 10 3 0 8 -4 11 -10z
m464 -4 c9 -10 8 -15 -2 -19 -8 -3 -13 3 -13 14 0 23 0 23 15 5z m-669 -11
c-7 -9 -15 -13 -19 -10 -3 3 1 10 9 15 21 14 24 12 10 -5z m378 -9 c-2 -1 -12
-8 -23 -16 -18 -14 -19 -14 -7 2 8 10 10 23 6 30 -6 9 -3 9 9 -1 10 -8 16 -14
15 -15z m156 -5 c15 -17 15 -19 1 -25 -10 -3 -14 -2 -10 5 4 5 1 16 -5 24 -18
22 -6 18 14 -4z m305 5 c9 -10 8 -15 -2 -19 -8 -3 -13 3 -13 14 0 23 0 23 15
5z m311 0 c0 -2 -7 -7 -16 -10 -8 -3 -12 -2 -9 4 6 10 25 14 25 6z m-990 -10
c0 -2 -8 -10 -17 -17 -16 -13 -17 -12 -4 4 13 16 21 21 21 13z m93 -13 c-3 -7
-9 -13 -13 -13 -4 0 -10 6 -13 13 -3 7 3 13 13 13 10 0 16 -6 13 -13z m76 -17
c-3 -3 -11 5 -18 17 -13 21 -12 21 5 5 10 -10 16 -20 13 -22z m142 17 c13 -16
12 -17 -3 -4 -10 7 -18 15 -18 17 0 8 8 3 21 -13z m469 11 c0 -8 -19 -13 -24
-6 -3 5 1 9 9 9 8 0 15 -2 15 -3z m-919 -21 c13 -16 12 -17 -3 -4 -17 13 -22
21 -14 21 2 0 10 -8 17 -17z m609 9 c0 -4 -10 -13 -22 -21 -23 -14 -23 -14 -4
8 20 22 26 25 26 13z m385 -2 c3 -5 1 -10 -4 -10 -6 0 -11 5 -11 10 0 6 2 10
4 10 3 0 8 -4 11 -10z m-597 -17 c-6 -7 -12 -13 -13 -13 -2 0 -5 6 -8 13 -3 7
3 13 14 13 13 0 15 -3 7 -13z m474 3 c9 6 9 3 -1 -9 -8 -10 -14 -16 -15 -15
-1 2 -8 12 -16 23 -14 18 -14 19 2 7 10 -8 23 -10 30 -6z m215 0 c0 -8 -6 -12
-15 -9 -11 5 -11 7 0 14 7 5 13 9 14 9 0 0 1 -6 1 -14z m-904 -9 c4 3 7 4 7 1
0 -3 -8 -12 -17 -19 -10 -7 -15 -9 -11 -5 4 5 2 16 -5 25 -10 14 -10 14 4 4 9
-7 19 -10 22 -6z m297 -7 c0 -5 -5 -10 -11 -10 -5 0 -7 5 -4 10 3 6 8 10 11
10 2 0 4 -4 4 -10z m78 -15 c-3 -3 -9 2 -12 12 -6 14 -5 15 5 6 7 -7 10 -15 7
-18z m392 4 c0 -14 -17 -10 -23 5 -4 10 -1 13 9 9 7 -3 14 -9 14 -14z m92 7
c9 6 9 3 -1 -9 -8 -10 -14 -16 -15 -15 -1 2 -8 12 -16 23 -14 18 -14 19 2 7
10 -8 23 -10 30 -6z m-316 -18 c10 -13 15 -20 10 -16 -5 4 -16 2 -25 -5 -14
-10 -14 -10 -4 4 10 12 10 18 1 27 -7 7 -10 12 -7 12 3 0 14 -10 25 -22z m-72
-4 c5 -14 4 -15 -9 -4 -17 14 -19 20 -6 20 5 0 12 -7 15 -16z m472 -4 c0 -9
-7 -16 -16 -16 -9 0 -16 7 -16 16 0 9 7 16 16 16 9 0 16 -7 16 -16z m-586 7
c0 -2 -18 -18 -39 -35 -29 -23 -42 -29 -47 -19 -4 6 -4 9 1 5 4 -4 24 6 44 22
35 29 41 33 41 27z m63 -20 c4 3 7 4 7 1 0 -3 -8 -12 -17 -19 -10 -7 -15 -9
-11 -5 4 5 2 16 -5 25 -10 14 -10 14 4 4 9 -7 19 -10 22 -6z m221 -3 c5 -14 4
-15 -9 -4 -17 14 -19 20 -6 20 5 0 12 -7 15 -16z m174 -3 c-7 -11 -16 -17 -21
-14 -4 3 0 11 10 19 24 18 25 17 11 -5z m-780 -5 c-2 -1 -12 -8 -22 -16 -18
-14 -18 -14 -6 7 8 12 18 19 23 16 4 -3 7 -6 5 -7z m699 -16 l22 -26 -22 -13
c-20 -13 -21 -13 -8 2 11 14 11 20 1 32 -7 9 -20 13 -28 10 -12 -4 -13 -3 -2
10 7 9 13 14 14 13 1 -2 11 -14 23 -28z m158 18 c5 4 5 1 1 -6 -6 -10 -11 -10
-22 -1 -8 6 -14 14 -14 16 0 3 6 0 13 -6 8 -6 18 -7 22 -3z m-300 -10 c5 4 5
1 1 -6 -6 -10 -11 -10 -22 -1 -8 6 -14 14 -14 16 0 3 6 0 13 -6 8 -6 18 -7 22
-3z m-685 -13 c0 -12 -19 -12 -23 0 -4 9 -1 12 9 8 7 -3 14 -7 14 -8z m300 6
c0 -5 -7 -12 -16 -15 -14 -5 -15 -4 -4 9 14 17 20 19 20 6z m330 -44 c0 -5 -9
2 -21 17 -18 23 -23 25 -38 14 -14 -12 -15 -11 -2 5 13 17 15 17 38 -4 12 -13
23 -27 23 -32z m431 36 c13 -16 12 -17 -3 -4 -17 13 -22 21 -14 21 2 0 10 -8
17 -17z m-889 -7 c10 6 11 5 1 -8 -7 -8 -10 -18 -6 -21 3 -4 4 -7 1 -7 -3 0
-14 12 -24 28 -14 22 -15 25 -1 14 9 -8 22 -10 29 -6z m-89 -9 c3 -7 -3 -13
-14 -13 -13 0 -15 3 -7 13 6 7 12 13 13 13 2 0 5 -6 8 -13z m387 10 c0 -2 -10
-12 -22 -23 l-23 -19 19 23 c18 21 26 27 26 19z m-500 -11 c0 -2 -8 -10 -17
-17 -16 -13 -17 -12 -4 4 13 16 21 21 21 13z m359 -30 c-3 -3 -11 5 -18 17
-13 21 -12 21 5 5 10 -10 16 -20 13 -22z m196 2 c-22 -17 -24 -22 -13 -36 12
-13 11 -14 -8 -2 -20 12 -20 13 5 39 14 15 30 25 34 23 4 -2 -4 -13 -18 -24z
m412 19 c0 -8 -6 -14 -14 -14 -9 0 -10 4 -2 14 6 7 12 13 14 13 1 0 2 -6 2
-13z m-918 -11 c9 -10 7 -17 -6 -27 -16 -12 -17 -12 -6 2 10 12 10 18 1 27 -7
7 -9 12 -6 12 3 0 11 -6 17 -14z m690 0 c9 -10 8 -15 -2 -19 -8 -3 -13 3 -13
14 0 23 0 23 15 5z m-584 -16 c-10 -11 -21 -18 -23 -15 -3 3 3 12 14 20 27 20
30 18 9 -5z m295 5 c0 -12 -19 -12 -23 0 -4 9 -1 12 9 8 7 -3 14 -7 14 -8z
m454 -4 c15 -17 15 -19 1 -25 -10 -3 -14 -2 -10 5 4 5 1 16 -5 24 -18 22 -6
18 14 -4z m145 16 c-2 -1 -13 -9 -24 -17 -19 -14 -19 -14 -6 3 7 9 18 17 24
17 6 0 8 -1 6 -3z m-209 -32 c14 -19 14 -19 -2 -6 -10 7 -18 18 -18 24 0 6 1
8 3 6 1 -2 9 -13 17 -24z m-615 6 c3 -5 2 -12 -3 -15 -5 -3 -9 1 -9 9 0 17 3
19 12 6z m103 -10 c-7 -11 -16 -17 -21 -14 -4 3 0 11 10 19 24 18 25 17 11 -5z
m292 -2 c0 -14 -17 -10 -23 5 -4 10 -1 13 9 9 7 -3 14 -9 14 -14z m-511 -6
c14 11 14 10 2 -6 -10 -13 -17 -15 -27 -6 -8 6 -14 14 -14 17 0 3 5 1 12 -6 9
-9 15 -9 27 1z m296 -3 c-4 -6 -1 -19 6 -28 12 -16 12 -16 -5 0 -16 14 -15 38
0 38 3 0 2 -5 -1 -10z m305 -15 c14 -19 14 -19 -2 -6 -15 11 -21 11 -35 0 -15
-11 -14 -9 1 9 11 12 20 21 20 20 1 -2 8 -12 16 -23z m-710 1 c0 -2 -8 -10
-17 -17 -16 -13 -17 -12 -4 4 13 16 21 21 21 13z m268 -20 c-2 -1 -12 -8 -23
-16 -18 -14 -19 -14 -7 2 8 10 10 23 6 30 -6 9 -3 9 9 -1 10 -8 16 -14 15 -15z
m610 4 c7 -11 11 -20 9 -20 -2 0 -12 9 -22 20 -10 11 -14 20 -9 20 5 0 15 -9
22 -20z m-687 -7 c12 -16 12 -17 -2 -6 -9 7 -20 9 -24 5 -5 -4 -5 -1 -1 6 9
16 11 15 27 -5z m-51 -25 c0 -15 -15 -8 -28 12 -12 19 -11 20 8 8 11 -7 20
-16 20 -20z m600 17 c-7 -9 -15 -13 -19 -10 -3 3 1 10 9 15 21 14 24 12 10 -5z
m69 1 c9 -10 7 -17 -6 -27 -16 -12 -17 -12 -6 2 10 12 10 18 1 27 -7 7 -9 12
-6 12 3 0 11 -6 17 -14z m231 5 c0 -5 -7 -12 -16 -15 -14 -5 -15 -4 -4 9 14
17 20 19 20 6z m-679 -18 c12 -16 12 -17 -2 -6 -9 7 -20 9 -24 5 -5 -4 -5 -1
-1 6 9 16 11 15 27 -5z m179 14 c0 -2 -8 -11 -18 -20 -15 -14 -19 -15 -19 -2
0 8 4 12 8 9 4 -2 10 0 14 6 6 10 15 14 15 7z m380 -12 c-7 -8 -17 -15 -23
-15 -6 0 -2 7 9 15 25 19 30 19 14 0z m-612 -21 c1 0 -8 -9 -20 -20 -18 -15
-20 -16 -9 -1 11 14 11 20 0 35 -13 16 -13 16 6 2 11 -8 21 -15 23 -16z m150
-5 c13 -16 20 -29 15 -28 -4 0 -18 13 -31 30 -13 16 -20 29 -15 28 4 0 18 -13
31 -30z m542 16 c0 -2 -6 -8 -13 -14 -10 -8 -14 -7 -14 2 0 8 6 14 14 14 7 0
13 -1 13 -2z m-599 -19 c-8 -9 -8 -16 -2 -20 6 -4 20 -21 33 -39 14 -20 16
-27 6 -19 -10 8 -23 10 -30 6 -10 -5 -11 -4 -1 6 10 11 9 18 -9 37 -19 20 -20
25 -8 33 21 14 24 12 11 -4z m165 -12 c15 6 16 5 7 -5 -10 -10 -10 -16 0 -28
11 -14 10 -14 -5 -2 -15 11 -21 11 -35 0 -16 -12 -17 -12 -5 2 7 9 10 25 6 35
-4 15 -4 16 4 5 6 -9 17 -11 28 -7z m-476 3 c0 -2 -10 -12 -22 -23 l-23 -19
19 23 c18 21 26 27 26 19z m90 -12 c-7 -9 -15 -13 -19 -10 -3 3 1 10 9 15 21
14 24 12 10 -5z m459 -19 c-3 -3 -11 5 -18 17 -13 21 -12 21 5 5 10 -10 16
-20 13 -22z m-269 21 c0 -2 -10 -12 -22 -23 l-23 -19 19 23 c18 21 26 27 26
19z m-106 -23 c3 -8 2 -12 -4 -9 -6 3 -10 10 -10 16 0 14 7 11 14 -7z m466 -5
c0 -14 -17 -10 -23 5 -4 10 -1 13 9 9 7 -3 14 -9 14 -14z m-219 -20 c21 -30
21 -31 1 -18 -12 7 -19 15 -17 18 3 2 0 10 -6 18 -6 7 -9 13 -6 13 3 0 16 -14
28 -31z m311 19 c-9 -9 -9 -15 0 -27 8 -11 5 -10 -8 2 -16 15 -17 19 -4 27 21
13 26 12 12 -2z m77 -3 c7 3 8 0 5 -9 -8 -22 -17 -20 -33 7 -13 20 -13 21 2 9
9 -8 21 -11 26 -7z m-759 1 c0 -2 -8 -10 -17 -17 -16 -13 -17 -12 -4 4 13 16
21 21 21 13z m73 -9 c4 3 7 4 7 1 0 -3 -8 -12 -17 -19 -10 -7 -15 -9 -11 -5 4
5 2 16 -5 25 -10 14 -10 14 4 4 9 -7 19 -10 22 -6z m456 -11 c9 -11 9 -16 -1
-22 -7 -4 -10 -4 -6 1 4 4 3 14 -3 22 -6 7 -9 13 -6 13 2 0 10 -6 16 -14z
m-363 -16 c0 -12 -4 -16 -10 -10 -5 5 -26 -5 -52 -27 -24 -19 -44 -33 -44 -30
0 4 99 87 104 87 1 0 2 -9 2 -20z m63 6 c9 -11 9 -16 -1 -22 -7 -4 -10 -4 -6
1 4 4 3 14 -3 22 -6 7 -9 13 -6 13 2 0 10 -6 16 -14z m397 -18 c10 -13 12 -17
4 -11 -11 10 -18 9 -35 -7 -21 -20 -23 -20 -36 -3 -12 16 -12 17 2 6 13 -11
19 -10 33 5 9 10 13 22 9 25 -3 4 -4 7 -1 7 3 0 13 -10 24 -22z m225 5 c13
-16 12 -17 -3 -4 -17 13 -22 21 -14 21 2 0 10 -8 17 -17z m-522 -6 c-2 -1 -13
-9 -24 -17 -19 -14 -19 -14 -6 3 7 9 18 17 24 17 6 0 8 -1 6 -3z m389 -17 c12
-19 11 -20 -8 -8 -20 13 -27 28 -12 28 4 0 13 -9 20 -20z m-521 -7 c-4 -3 -1
-13 6 -22 11 -14 10 -14 -5 -2 -16 12 -16 31 -1 31 4 0 3 -3 0 -7z m81 -17
c-2 -1 -12 -8 -23 -16 -18 -14 -19 -14 -7 2 8 10 10 23 6 30 -6 9 -3 9 9 -1
10 -8 16 -14 15 -15z m223 7 c11 -15 11 -16 -1 -6 -11 10 -17 10 -29 0 -14
-11 -14 -10 -2 6 7 9 15 17 16 17 1 0 9 -8 16 -17z m-121 3 c0 -2 -8 -10 -17
-17 -16 -13 -17 -12 -4 4 13 16 21 21 21 13z m54 -15 c15 -17 15 -19 1 -25
-10 -3 -14 -2 -10 5 4 5 1 16 -5 24 -18 22 -6 18 14 -4z m225 6 c8 -10 7 -14
-2 -14 -8 0 -14 6 -14 14 0 7 1 13 2 13 2 0 8 -6 14 -13z m-99 -1 c0 -2 -19
-19 -43 -39 l-43 -35 -14 21 c-12 20 -12 21 3 8 14 -11 22 -9 54 18 39 31 43
34 43 27z m271 -23 c13 -16 12 -17 -3 -4 -17 13 -22 21 -14 21 2 0 10 -8 17
-17z m-681 -3 c0 -5 -4 -10 -10 -10 -5 0 -10 5 -10 10 0 6 5 10 10 10 6 0 10
-4 10 -10z m170 -21 c0 -4 -7 -10 -16 -13 -9 -3 -12 -2 -9 5 4 5 1 17 -7 26
-12 15 -11 15 10 2 12 -8 22 -17 22 -20z m310 -14 c13 -14 21 -25 18 -25 -2 0
-15 11 -28 25 -13 14 -21 25 -18 25 2 0 15 -11 28 -25z m71 8 c13 -16 12 -17
-3 -4 -10 7 -18 15 -18 17 0 8 8 3 21 -13z m-292 -15 c13 -21 13 -22 -2 -10
-9 8 -21 11 -26 7 -7 -3 -8 0 -5 9 8 22 17 20 33 -6z m166 2 c-4 -6 -1 -18 7
-27 12 -15 11 -15 -9 -2 -26 16 -29 25 -10 32 18 8 19 8 12 -3z m-300 -11 c-4
-6 2 -20 12 -32 11 -12 24 -29 28 -37 7 -12 6 -13 -6 -3 -12 10 -18 10 -29 0
-12 -10 -12 -9 -1 6 12 15 11 21 -8 41 -17 18 -19 25 -9 29 19 8 20 8 13 -4z
m66 -6 c13 -16 12 -17 -3 -4 -10 7 -18 15 -18 17 0 8 8 3 21 -13z m104 -13
c-4 -6 -1 -19 6 -28 10 -13 8 -12 -9 2 -17 15 -19 22 -10 28 17 10 20 10 13
-2z m95 7 c0 -2 -10 -12 -22 -23 l-23 -19 19 23 c18 21 26 27 26 19z m201 -14
c13 -16 12 -17 -3 -4 -17 13 -22 21 -14 21 2 0 10 -8 17 -17z m-342 -20 c14
11 14 10 2 -5 -7 -10 -17 -18 -21 -18 -4 0 -11 8 -15 18 -5 13 -4 14 6 5 10
-10 16 -10 28 0z m146 -23 c10 -11 16 -20 13 -20 -3 0 -13 9 -23 20 -10 11
-16 20 -13 20 3 0 13 -9 23 -20z m-71 -8 c3 -5 -1 -9 -9 -9 -8 0 -12 4 -9 9 3
4 7 8 9 8 2 0 6 -4 9 -8z m-124 -17 c-7 -8 -18 -15 -24 -15 -6 0 -2 7 8 15 25
19 32 19 16 0z m80 -17 c0 -15 -15 -8 -28 12 -12 19 -11 20 8 8 11 -7 20 -16
20 -20z"/>
<path d="M2787 3041 c-29 -53 -120 -141 -171 -168 -17 -9 -53 -24 -81 -34 -27
-10 -50 -22 -50 -27 0 -5 61 -41 136 -79 75 -38 184 -102 243 -141 93 -63 136
-84 136 -67 0 2 -13 37 -29 78 -41 103 -87 255 -115 377 -12 57 -27 105 -32
107 -5 2 -21 -19 -37 -46z"/>
<path d="M3982 4283 c-13 -3 -19 -9 -16 -15 4 -7 2 -8 -5 -4 -6 4 -19 2 -28
-6 -12 -9 -15 -9 -9 0 8 14 -3 16 -24 2 -12 -8 -12 -10 2 -15 9 -4 19 -13 22
-21 4 -9 -4 -7 -23 7 -24 18 -32 19 -52 9 l-23 -13 26 -22 27 -23 -22 -18
c-20 -18 -21 -18 -8 -1 13 16 12 21 -7 39 -18 19 -25 20 -48 10 -23 -11 -24
-15 -13 -30 13 -15 12 -16 -4 -3 -15 12 -20 11 -37 -4 -11 -10 -17 -22 -14
-26 3 -5 -1 -6 -9 -3 -14 5 -167 -134 -167 -153 0 -5 6 -15 13 -23 9 -11 8
-11 -7 0 -17 13 -20 13 -30 -3 -6 -10 -21 -30 -33 -45 -17 -20 -19 -29 -11
-39 8 -10 7 -12 -5 -7 -10 3 -20 -2 -27 -15 -6 -12 -7 -21 -3 -21 4 0 -1 -6
-10 -12 -17 -13 -91 -176 -101 -225 -4 -16 -9 -39 -12 -53 -4 -14 -8 -38 -10
-55 -1 -16 -5 -50 -8 -74 -5 -40 -5 -42 12 -30 13 11 13 8 -2 -9 -19 -21 -19
-29 -9 -111 9 -71 39 -168 59 -190 2 -2 12 2 21 10 17 13 17 13 1 -7 -17 -19
-16 -22 15 -60 38 -46 60 -66 105 -95 28 -18 35 -19 50 -7 15 12 16 11 4 -4
-12 -15 -10 -18 15 -25 15 -4 31 -7 35 -8 3 0 10 -3 14 -7 12 -13 36 -9 58 9
12 10 15 11 9 3 -7 -8 -13 -18 -13 -22 0 -15 53 -8 74 10 20 16 20 16 7 0 -12
-16 -10 -18 22 -18 20 0 39 5 42 10 4 6 10 8 15 5 15 -9 160 32 183 52 11 10
17 12 13 6 -10 -18 9 -16 24 2 11 13 8 19 -11 17 -3 -1 -6 5 -6 12 0 7 6 13
13 13 7 0 11 -4 8 -9 -3 -4 1 -11 9 -14 21 -8 118 44 173 91 6 6 31 25 54 44
125 102 293 332 276 377 -3 8 -1 12 4 9 10 -6 35 46 44 92 3 15 8 40 12 54 4
17 0 30 -10 39 -15 12 -15 14 0 31 18 20 32 99 17 99 -6 0 -8 11 -5 25 2 13 1
32 -2 41 -5 13 -9 14 -21 4 -12 -10 -13 -16 -3 -28 7 -9 -6 -3 -29 13 -22 17
-39 33 -36 38 2 4 13 -3 23 -15 15 -19 20 -20 34 -9 21 18 20 44 -5 92 -15 30
-25 39 -37 34 -13 -5 -14 -4 -5 6 15 15 -29 82 -89 134 -57 48 -148 108 -165
108 -7 0 -13 4 -13 8 0 16 -45 17 -65 1 -11 -9 -14 -10 -7 -2 17 20 15 27 -10
33 -15 4 -31 -1 -48 -16 -22 -20 -23 -20 -7 -1 23 28 14 34 -56 34 -55 0 -58
-1 -46 -17 13 -16 13 -16 -11 0 -13 9 -27 16 -30 16 -3 -1 -15 -4 -28 -6z
m112 -18 c-8 -21 15 -47 35 -40 8 3 12 3 8 -1 -4 -4 0 -16 10 -26 16 -18 17
-18 42 4 25 22 25 22 7 1 -10 -12 -15 -27 -10 -34 4 -7 3 -10 -4 -5 -6 3 -19
-5 -30 -19 -19 -24 -19 -24 -38 -4 -10 11 -24 17 -33 14 -8 -3 -12 -3 -8 1 4
4 1 14 -6 23 -10 14 -10 14 4 4 12 -10 18 -10 28 0 10 9 11 9 6 -4 -3 -9 1
-22 10 -29 13 -11 19 -11 32 3 15 15 15 18 -2 37 -10 11 -20 18 -23 15 -2 -2
-12 6 -22 18 -16 19 -20 20 -36 7 -14 -11 -13 -7 5 18 24 34 34 41 25 17z
m-86 -15 c-7 -11 -17 -20 -22 -20 -5 0 -1 9 9 20 10 11 20 20 22 20 2 0 -2 -9
-9 -20z m42 -51 c0 -4 -7 -10 -16 -13 -9 -3 -12 -2 -9 5 4 5 1 17 -7 26 -12
15 -11 15 10 2 12 -8 22 -17 22 -20z m-78 9 c-7 -7 -8 -16 -2 -23 6 -7 3 -11
-8 -11 -10 0 -18 8 -18 17 0 10 4 16 7 13 4 -2 10 0 14 6 3 5 9 10 13 10 3 0
1 -5 -6 -12z m308 -1 c0 -2 -10 -12 -22 -23 l-23 -19 19 23 c18 21 26 27 26
19z m-393 -94 c5 3 9 -2 9 -12 0 -9 -8 -17 -17 -17 -9 0 -15 6 -12 12 6 17
-31 36 -45 24 -9 -7 -9 -7 -2 2 7 8 4 18 -8 32 -9 11 2 5 25 -13 23 -18 45
-31 50 -28z m117 48 c3 -5 -2 -15 -12 -22 -15 -12 -16 -12 -5 2 7 9 10 19 6
22 -3 4 -4 7 0 7 3 0 8 -4 11 -9z m-64 -25 c14 -18 14 -18 -7 -6 -12 8 -19 18
-16 23 3 4 6 7 7 5 1 -2 8 -12 16 -22z m440 5 c-5 -11 -15 -23 -21 -27 -6 -3
-3 5 6 20 20 30 30 35 15 7z m-142 -11 c12 -19 11 -20 -8 -8 -11 7 -20 16 -20
20 0 15 15 8 28 -12z m54 -3 c-17 -18 -19 -26 -9 -36 9 -10 9 -11 -4 -6 -9 3
-22 -1 -29 -10 -11 -13 -10 -19 5 -35 10 -11 22 -17 26 -14 17 10 9 -3 -13
-22 -14 -12 -18 -13 -10 -3 10 13 8 19 -7 33 -18 16 -20 16 -39 -8 -11 -15
-23 -26 -28 -26 -4 0 3 11 16 25 20 21 21 27 9 42 -12 16 -12 17 2 5 14 -10
22 -6 53 33 21 25 40 45 43 45 4 0 -3 -10 -15 -23z m-228 -2 c-7 -16 -24 -21
-24 -6 0 8 7 13 27 20 1 1 0 -6 -3 -14z m-268 -25 c5 0 15 -9 22 -21 8 -12 19
-18 28 -15 8 3 13 2 9 -3 -3 -5 6 -18 19 -28 l25 -18 -24 -27 c-21 -25 -24
-26 -37 -11 -10 14 -10 15 0 9 8 -5 21 -1 32 9 19 17 18 19 -25 52 -26 20 -50
31 -58 27 -6 -4 -9 -3 -4 1 4 5 -3 20 -15 34 -20 22 -20 23 -2 8 11 -9 25 -17
30 -17z m231 -9 c17 13 17 13 3 -6 -8 -11 -16 -22 -17 -24 -2 -3 -11 5 -19 18
-9 12 -22 20 -30 17 -8 -3 -11 0 -7 10 5 13 10 11 29 -7 21 -19 26 -20 41 -8z
m163 -2 c0 -4 -7 -10 -16 -13 -9 -3 -12 -2 -9 5 4 5 1 17 -7 26 -12 15 -11 15
10 2 12 -8 22 -17 22 -20z m-485 1 c10 -11 16 -20 13 -20 -3 0 -13 9 -23 20
-10 11 -16 20 -13 20 3 0 13 -9 23 -20z m725 16 c0 -2 -8 -10 -17 -17 -16 -13
-17 -12 -4 4 13 16 21 21 21 13z m-316 -32 c3 -9 2 -12 -5 -9 -10 7 -39 -12
-39 -25 0 -5 18 -23 40 -40 35 -28 43 -30 58 -19 15 12 16 12 4 -2 -10 -14 -6
-22 31 -52 42 -34 45 -35 62 -19 18 16 18 16 5 -1 -11 -15 -10 -21 9 -41 17
-18 19 -26 10 -31 -7 -5 -10 -4 -6 2 4 6 -13 27 -37 46 -33 28 -46 33 -55 24
-10 -9 -11 -8 -6 4 3 9 -1 22 -10 29 -12 10 -18 10 -32 -1 -16 -12 -17 -12 -6
2 11 13 10 19 -6 33 -11 10 -25 15 -32 10 -7 -4 -10 -3 -6 3 4 6 -2 18 -12 27
-16 15 -19 15 -35 -3 -11 -12 -15 -25 -10 -33 6 -11 5 -11 -8 0 -14 11 -11 17
23 55 22 23 39 45 39 49 0 14 18 8 24 -8z m376 13 c0 -2 -10 -12 -22 -23 l-23
-19 19 23 c18 21 26 27 26 19z m-550 -22 c0 -1 -10 -10 -22 -21 -17 -14 -20
-15 -9 -2 7 9 10 22 6 27 -3 7 0 8 9 5 9 -3 16 -7 16 -9z m415 -25 c5 0 18 8
29 18 21 17 21 17 2 -5 -16 -20 -17 -25 -5 -40 10 -12 4 -10 -18 5 -18 13 -35
27 -39 33 -4 6 -12 5 -22 -3 -15 -11 -15 -11 -5 3 7 9 9 20 5 25 -4 5 5 -1 19
-13 14 -13 29 -23 34 -23z m-585 5 c0 -1 -10 -10 -22 -21 -17 -14 -20 -15 -9
-2 7 9 10 22 6 27 -3 7 0 8 9 5 9 -3 16 -7 16 -9z m387 0 c0 -6 -6 -12 -12
-12 -6 0 -12 6 -12 12 0 6 6 12 12 12 6 0 12 -6 12 -12z m-174 -8 c4 3 7 2 7
-3 0 -5 -10 -15 -22 -23 -20 -13 -22 -12 -11 1 10 11 10 17 0 28 -10 12 -9 12
4 2 9 -6 19 -9 22 -5z m-292 -14 c13 -16 12 -17 -3 -4 -17 13 -22 21 -14 21 2
0 10 -8 17 -17z m126 -2 c7 7 13 9 13 7 0 -3 -10 -13 -22 -24 -13 -10 -20 -15
-16 -10 4 5 2 16 -4 25 -10 13 -10 14 2 4 10 -9 17 -10 27 -2z m-192 -21 c10
-11 16 -20 13 -20 -3 0 -13 9 -23 20 -10 11 -16 20 -13 20 3 0 13 -9 23 -20z
m712 1 c15 13 15 12 2 -8 -8 -13 -16 -23 -19 -23 -3 0 -11 10 -19 23 -13 20
-13 21 2 8 14 -11 20 -11 34 0z m-638 -41 c-18 -22 -35 -40 -38 -40 -3 0 0 5
7 12 9 9 8 16 -6 32 -16 20 -16 20 2 6 17 -13 20 -12 35 7 9 12 20 22 24 23 4
0 -7 -18 -24 -40z m721 37 c0 -2 -10 -12 -21 -23 -22 -19 -22 -19 -8 4 12 19
29 30 29 19z m-470 -11 c0 -2 -8 -10 -17 -17 -16 -13 -17 -12 -4 4 13 16 21
21 21 13z m311 -27 c17 -17 23 -18 37 -7 15 11 15 11 5 -3 -10 -12 -10 -18 0
-29 6 -7 -5 -1 -26 15 -32 24 -39 26 -54 14 -15 -13 -15 -12 -2 9 17 27 14 27
40 1z m211 9 c-9 -9 -9 -15 1 -27 11 -14 10 -14 -6 -2 -13 10 -15 17 -6 27 6
8 14 14 17 14 3 0 1 -5 -6 -12z m-683 -20 c13 -21 13 -22 -2 -10 -9 8 -21 11
-26 7 -7 -3 -8 0 -5 9 8 22 17 20 33 -6z m201 -8 c-11 -16 -25 -32 -31 -35 -5
-4 -6 -11 -3 -17 4 -7 2 -8 -4 -4 -8 5 -2 20 20 47 37 46 49 52 18 9z m390 -2
c0 -12 -6 -9 -26 13 -19 22 -19 22 4 8 12 -8 22 -17 22 -21z m-470 -10 c0 -15
-15 -8 -28 12 -12 19 -11 20 8 8 11 -7 20 -16 20 -20z m170 23 c0 -5 -7 -11
-14 -14 -10 -4 -13 -1 -9 9 6 15 23 19 23 5z m460 5 c0 -2 -8 -10 -17 -17 -16
-13 -17 -12 -4 4 13 16 21 21 21 13z m-925 -26 c10 -11 16 -20 13 -20 -3 0
-13 9 -23 20 -10 11 -16 20 -13 20 3 0 13 -9 23 -20z m217 8 c-9 -9 -8 -16 6
-32 15 -19 16 -20 0 -7 -9 7 -23 9 -29 5 -8 -5 -10 -3 -4 7 13 23 27 39 33 39
3 0 1 -5 -6 -12z m-291 -25 c13 -16 12 -17 -3 -4 -17 13 -22 21 -14 21 2 0 10
-8 17 -17z m202 0 c-4 -10 -9 -11 -19 -2 -18 15 -18 15 5 15 11 0 17 -5 14
-13z m682 5 c5 4 5 1 1 -6 -6 -10 -11 -10 -22 -1 -8 6 -14 14 -14 16 0 3 6 0
13 -6 8 -6 18 -7 22 -3z m-381 -12 c-3 -8 -13 -17 -22 -21 -13 -5 -13 -2 3 15
21 24 26 25 19 6z m87 -3 c13 -16 12 -17 -3 -4 -17 13 -22 21 -14 21 2 0 10
-8 17 -17z m390 0 c13 -17 13 -17 -6 -3 -11 8 -22 16 -24 17 -2 2 0 3 6 3 6 0
17 -8 24 -17z m-860 -10 c10 -12 11 -15 1 -9 -7 4 -20 2 -29 -6 -15 -12 -15
-11 -2 10 17 26 13 26 30 5z m685 -5 c10 -13 12 -17 4 -11 -11 10 -17 10 -29
0 -14 -10 -14 -10 -4 4 7 9 10 19 6 22 -3 4 -4 7 -1 7 3 0 13 -10 24 -22z
m-469 5 c-4 -3 -1 -13 6 -22 11 -14 10 -14 -5 -2 -16 12 -16 31 -1 31 4 0 3
-3 0 -7z m-237 -61 c0 -3 -5 -1 -12 6 -9 9 -16 8 -32 -6 -20 -16 -20 -16 -7 1
12 15 11 20 -5 39 -14 16 -9 15 19 -6 20 -16 37 -31 37 -34z m537 43 c0 -6 -6
-12 -12 -12 -6 0 -12 6 -12 12 0 6 6 12 12 12 6 0 12 -6 12 -12z m221 -5 c-12
-19 -28 -27 -28 -14 0 6 30 33 38 34 1 0 -3 -9 -10 -20z m63 3 c13 -16 12 -17
-3 -4 -17 13 -22 21 -14 21 2 0 10 -8 17 -17z m-766 -2 c3 -5 2 -12 -3 -15 -5
-3 -9 1 -9 9 0 17 3 19 12 6z m310 -3 c5 4 5 1 1 -6 -6 -10 -11 -10 -22 -1 -8
6 -14 14 -14 16 0 3 6 0 13 -6 8 -6 18 -7 22 -3z m-80 -8 c-4 -6 -1 -18 7 -27
12 -15 11 -15 -9 -3 -16 11 -19 17 -11 27 13 16 22 17 13 3z m176 -7 c13 -17
13 -17 -6 -3 -11 8 -22 16 -24 17 -2 2 0 3 6 3 6 0 17 -8 24 -17z m129 2 c-6
-8 -9 -19 -5 -24 4 -7 0 -8 -10 -5 -14 6 -14 8 1 25 20 22 32 26 14 4z m-699
-12 c13 -16 12 -17 -3 -4 -17 13 -22 21 -14 21 2 0 10 -8 17 -17z m307 -9 c2
-1 -5 -5 -15 -8 -9 -4 -14 -4 -10 0 4 4 1 14 -6 23 -11 14 -10 15 8 1 11 -8
21 -15 23 -16z m681 11 c7 3 8 0 5 -9 -8 -20 -7 -20 -30 6 -14 17 -15 20 -2 9
9 -7 22 -10 27 -6z m-768 -22 c8 -9 9 -14 2 -10 -6 4 -23 -7 -40 -26 -15 -18
-24 -28 -20 -21 5 7 -2 20 -17 32 -14 10 -23 22 -19 25 3 3 13 -4 23 -16 15
-18 20 -19 34 -8 9 7 16 20 16 27 0 18 5 18 21 -3z m395 -4 c19 -22 19 -22 -3
-8 -13 8 -23 17 -23 21 0 12 6 9 26 -13z m-258 -9 c-15 -24 -24 -25 -31 -6 -4
10 -1 13 7 10 8 -3 17 -1 21 5 3 6 8 11 11 11 2 0 -1 -9 -8 -20z m162 10 c0
-5 -4 -10 -10 -10 -5 0 -10 5 -10 10 0 6 5 10 10 10 6 0 10 -4 10 -10z m304
-5 c-4 -8 -11 -15 -16 -15 -6 0 -5 6 2 15 7 8 14 15 16 15 2 0 1 -7 -2 -15z
m87 -2 c10 -12 11 -15 1 -9 -7 4 -20 2 -29 -6 -15 -12 -15 -11 -2 10 17 26 13
26 30 5z m-860 -10 c7 -10 9 -15 4 -10 -4 4 -17 0 -27 -10 -17 -16 -17 -17 -1
-37 17 -20 17 -20 1 -7 -15 11 -21 11 -35 0 -12 -9 -10 -3 5 18 13 18 27 35
33 38 5 4 7 11 4 16 -10 16 2 10 16 -8z m395 -4 c19 -22 19 -22 -3 -8 -13 8
-23 17 -23 21 0 12 6 9 26 -13z m216 9 c-9 -9 -9 -15 1 -27 11 -14 10 -14 -6
-2 -13 10 -15 17 -6 27 6 8 14 14 17 14 3 0 1 -5 -6 -12z m75 -2 c0 -7 -9 -19
-19 -25 -18 -11 -18 -11 -2 14 19 29 21 30 21 11z m299 5 c9 8 11 5 7 -10 -7
-26 -6 -26 -29 2 -10 12 -12 16 -4 10 9 -9 17 -9 26 -2z m-766 -21 c0 -5 -4
-10 -10 -10 -5 0 -10 5 -10 10 0 6 5 10 10 10 6 0 10 -4 10 -10z m221 -3 c-6
-8 -7 -18 -3 -22 4 -5 1 -5 -6 -1 -10 6 -10 11 -1 22 6 8 14 14 16 14 3 0 0
-6 -6 -13z m79 -2 c0 -1 -10 -10 -22 -21 -17 -14 -20 -15 -9 -2 7 9 10 22 6
27 -3 7 0 8 9 5 9 -3 16 -7 16 -9z m294 -14 c-2 -3 -12 3 -22 13 -16 17 -16
18 5 5 12 -7 20 -15 17 -18z m-764 -3 c0 -6 -6 -5 -15 2 -8 7 -15 14 -15 16 0
2 7 1 15 -2 8 -4 15 -11 15 -16z m300 -3 c0 -1 -6 -7 -13 -13 -10 -8 -13 -6
-13 7 0 11 6 17 13 14 7 -3 13 -6 13 -8z m387 0 c0 -8 -4 -12 -9 -9 -5 3 -6
10 -3 15 9 13 12 11 12 -6z m298 3 c5 4 5 1 1 -6 -6 -10 -11 -10 -22 -1 -8 6
-14 14 -14 16 0 3 6 0 13 -6 8 -6 18 -7 22 -3z m-455 -2 c0 -2 -8 -10 -17 -17
-16 -13 -17 -12 -4 4 13 16 21 21 21 13z m-400 -21 c0 -12 -19 -12 -23 0 -4 9
-1 12 9 8 7 -3 14 -7 14 -8z m91 -2 c10 -12 11 -15 1 -9 -7 4 -20 2 -29 -6
-15 -12 -15 -11 -2 10 17 26 13 26 30 5z m429 -10 c12 10 12 9 1 -6 -13 -17
-15 -17 -36 3 -12 11 -25 17 -30 13 -4 -5 -5 -2 -1 5 6 11 13 9 30 -7 18 -17
25 -18 36 -8z m180 23 c0 -2 -8 -10 -17 -17 -16 -13 -17 -12 -4 4 13 16 21 21
21 13z m-470 -10 c0 -2 -6 -9 -14 -15 -11 -9 -16 -9 -22 0 -4 7 -3 9 4 5 6 -3
13 -2 17 4 6 10 15 14 15 6z m-393 -13 c-4 -3 -1 -13 6 -22 11 -14 10 -14 -5
-2 -16 12 -16 31 -1 31 4 0 3 -3 0 -7z m463 3 c0 -2 -8 -10 -17 -17 -16 -13
-17 -12 -4 4 13 16 21 21 21 13z m-256 -35 c-2 -3 -12 3 -22 13 -16 17 -16 18
5 5 12 -7 20 -15 17 -18z m-314 -6 c-20 -21 -21 -27 -9 -41 13 -16 12 -16 -8
-4 l-21 14 21 27 c12 15 26 28 31 28 5 1 -1 -10 -14 -24z m160 10 c-6 -8 -9
-19 -5 -24 4 -7 0 -8 -10 -5 -14 6 -14 8 1 25 20 22 32 26 14 4z m240 11 c0
-2 -8 -10 -17 -17 -16 -13 -17 -12 -4 4 13 16 21 21 21 13z m215 -6 c7 6 11 3
11 -10 0 -14 -4 -16 -18 -9 -9 5 -20 15 -24 22 -5 9 -4 9 6 0 9 -8 18 -9 25
-3z m376 -7 c13 -16 12 -17 -3 -4 -10 7 -18 15 -18 17 0 8 8 3 21 -13z m99 14
c0 -2 -10 -12 -22 -23 l-23 -19 19 23 c18 21 26 27 26 19z m-409 -31 l-22 -24
25 -20 c14 -11 26 -23 26 -28 0 -4 -11 3 -25 16 -21 20 -27 21 -42 9 -17 -13
-17 -13 -3 6 22 31 53 65 58 65 3 0 -5 -11 -17 -24z m-225 -5 c0 -11 -5 -17
-13 -14 -10 4 -11 9 -2 19 15 18 15 18 15 -5z m464 15 c0 -3 -4 -8 -10 -11 -5
-3 -10 -1 -10 4 0 6 5 11 10 11 6 0 10 -2 10 -4z m-166 -21 c-4 -8 -11 -15
-16 -15 -6 0 -5 6 2 15 7 8 14 15 16 15 2 0 1 -7 -2 -15z m-408 -23 c-17 -16
-18 -16 -5 5 7 12 15 20 18 17 3 -2 -3 -12 -13 -22z m625 15 c-6 -8 -8 -17 -4
-20 3 -4 1 -7 -5 -7 -15 0 -15 13 0 28 16 16 23 15 9 -1z m79 -8 c0 -14 -17
-10 -23 5 -4 10 -1 13 9 9 7 -3 14 -9 14 -14z m-775 1 c3 -5 1 -10 -4 -10 -6
0 -11 5 -11 10 0 6 2 10 4 10 3 0 8 -4 11 -10z m309 -5 c-7 -16 -24 -21 -24
-6 0 8 7 13 27 20 1 1 0 -6 -3 -14z m-478 -17 c10 -13 15 -20 10 -16 -5 4 -16
2 -25 -5 -14 -10 -14 -10 -4 4 10 12 10 18 1 27 -7 7 -10 12 -7 12 3 0 14 -10
25 -22z m94 18 c0 -2 -7 -9 -15 -16 -13 -11 -14 -10 -9 4 5 14 24 23 24 12z
m601 -9 c-6 -8 -7 -18 -3 -22 4 -5 1 -5 -6 -1 -10 6 -10 11 -1 22 6 8 14 14
16 14 3 0 0 -6 -6 -13z m82 -2 c-3 -9 -8 -14 -10 -11 -3 3 -2 9 2 15 9 16 15
13 8 -4z m-470 -12 c-4 -10 -9 -11 -19 -2 -18 15 -18 15 5 15 11 0 17 -5 14
-13z m91 1 c3 -9 2 -12 -5 -9 -5 4 -17 1 -26 -7 -15 -12 -15 -11 -2 10 16 26
25 28 33 6z m590 -13 c-2 -3 -12 3 -22 13 -16 17 -16 18 5 5 12 -7 20 -15 17
-18z m-1163 2 c13 -16 12 -17 -3 -4 -17 13 -22 21 -14 21 2 0 10 -8 17 -17z
m329 13 c0 -2 -8 -10 -17 -17 -16 -13 -17 -12 -4 4 13 16 21 21 21 13z m70
-16 c0 -5 -2 -10 -4 -10 -3 0 -8 5 -11 10 -3 6 -1 10 4 10 6 0 11 -4 11 -10z
m-164 -20 c0 -9 -7 -16 -16 -16 -9 0 -16 7 -16 16 0 9 7 16 16 16 9 0 16 -7
16 -16z m464 17 c0 -2 -10 -12 -21 -23 -22 -19 -22 -19 -8 4 12 19 29 30 29
19z m-240 -11 c0 -2 -8 -10 -17 -17 -16 -13 -17 -12 -4 4 13 16 21 21 21 13z
m-309 -23 c13 -16 12 -17 -3 -4 -17 13 -22 21 -14 21 2 0 10 -8 17 -17z m198
-17 c-3 -3 -11 5 -18 17 -13 21 -12 21 5 5 10 -10 16 -20 13 -22z m-289 20 c0
-2 -7 -9 -15 -16 -13 -11 -14 -10 -9 4 5 14 24 23 24 12z m230 0 c0 -2 -8 -10
-17 -17 -16 -13 -17 -12 -4 4 13 16 21 21 21 13z m551 -13 c13 -17 13 -17 -6
-3 -11 8 -22 16 -24 17 -2 2 0 3 6 3 6 0 17 -8 24 -17z m-861 -8 c11 -13 10
-14 -4 -9 -9 3 -16 10 -16 15 0 13 6 11 20 -6z m581 -2 c13 -16 12 -17 -3 -4
-17 13 -22 21 -14 21 2 0 10 -8 17 -17z m110 -10 c13 -16 12 -17 -3 -4 -10 7
-18 15 -18 17 0 8 8 3 21 -13z m129 2 c-6 -8 -8 -20 -4 -27 4 -7 3 -10 -1 -5
-5 4 -19 -3 -32 -15 -22 -20 -24 -21 -42 -4 -11 10 -25 15 -30 11 -18 -10 -12
1 9 20 16 14 19 15 15 4 -3 -9 2 -22 11 -30 15 -12 20 -10 47 24 17 20 33 37
35 37 2 0 -1 -7 -8 -15z m160 5 c0 -5 -2 -10 -4 -10 -3 0 -8 5 -11 10 -3 6 -1
10 4 10 6 0 11 -4 11 -10z m-74 -21 c19 -22 19 -22 -3 -8 -13 8 -23 17 -23 21
0 12 6 9 26 -13z m204 -11 c0 -12 -6 -9 -26 13 -19 22 -19 22 4 8 12 -8 22
-17 22 -21z m-462 2 c-7 -10 -14 -17 -17 -15 -4 4 18 35 25 35 2 0 -1 -9 -8
-20z m-383 0 c-4 -6 -1 -18 7 -27 12 -15 11 -15 -9 -3 -16 11 -19 17 -11 27
13 16 22 17 13 3z m683 -10 c-7 -10 -14 -17 -17 -15 -4 4 18 35 25 35 2 0 -1
-9 -8 -20z m-988 6 c0 -3 -4 -8 -10 -11 -5 -3 -10 -1 -10 4 0 6 5 11 10 11 6
0 10 -2 10 -4z m199 -10 c9 -11 9 -16 -1 -22 -7 -4 -10 -4 -6 1 4 4 3 14 -3
22 -6 7 -9 13 -6 13 2 0 10 -6 16 -14z m407 -5 c0 -11 -5 -17 -13 -14 -10 4
-11 9 -2 19 15 18 15 18 15 -5z m464 9 c0 -5 -4 -10 -10 -10 -5 0 -10 5 -10
10 0 6 5 10 10 10 6 0 10 -4 10 -10z m-934 -19 c0 -11 -5 -17 -13 -14 -17 6
-17 20 0 26 6 3 12 6 12 6 1 1 1 -7 1 -18z m-107 -5 c9 -11 9 -16 -1 -22 -7
-4 -10 -4 -6 1 4 4 3 14 -3 22 -6 7 -9 13 -6 13 2 0 10 -6 16 -14z m497 -8
c14 -17 15 -20 2 -9 -9 7 -22 10 -27 6 -7 -3 -8 0 -5 9 8 20 7 20 30 -6z m374
18 c0 -2 -7 -9 -15 -16 -13 -11 -14 -10 -9 4 5 14 24 23 24 12z m230 0 c0 -2
-8 -10 -17 -17 -16 -13 -17 -12 -4 4 13 16 21 21 21 13z m-865 -26 c-10 -11
-21 -18 -23 -15 -3 3 3 12 14 20 27 20 30 18 9 -5z m465 5 c0 -12 -19 -12 -23
0 -4 9 -1 12 9 8 7 -3 14 -7 14 -8z m-382 -8 c8 -10 6 -13 -7 -13 -11 0 -17 6
-14 13 3 7 6 13 8 13 1 0 7 -6 13 -13z m-249 -14 c-7 -10 -14 -19 -15 -21 -1
-1 -7 4 -14 13 -11 13 -10 14 3 10 8 -4 18 -2 22 4 3 6 9 11 12 11 3 0 -1 -8
-8 -17z m78 10 c-4 -3 1 -16 10 -27 17 -20 17 -20 -2 -6 -11 8 -22 15 -24 17
-5 3 9 23 16 23 4 0 3 -3 0 -7z m471 -7 c-2 -1 -12 -8 -22 -16 -18 -14 -18
-14 -6 7 8 12 18 19 23 16 4 -3 7 -6 5 -7z m277 -24 c-17 -15 -18 -15 -6 0 7
9 9 23 5 30 -6 10 -4 11 7 0 11 -10 10 -15 -6 -30z m105 34 c0 -2 -8 -10 -17
-17 -16 -13 -17 -12 -4 4 13 16 21 21 21 13z m-720 -47 c0 -4 -7 -10 -16 -13
-9 -3 -12 -2 -9 5 4 5 1 17 -7 26 -12 15 -11 15 10 2 12 -8 22 -17 22 -20z
m170 28 c0 -2 -10 -12 -21 -23 -22 -19 -22 -19 -8 4 12 19 29 30 29 19z m221
-10 c-6 -8 -7 -18 -3 -22 4 -5 1 -5 -6 -1 -10 6 -10 11 -1 22 6 8 14 14 16 14
3 0 0 -6 -6 -13z m74 -5 c-3 -3 -11 0 -18 7 -9 10 -8 11 6 5 10 -3 15 -9 12
-12z m90 8 c3 -6 -1 -7 -9 -4 -18 7 -21 14 -7 14 6 0 13 -4 16 -10z m-852 -14
c4 -10 1 -13 -8 -9 -8 3 -12 9 -9 14 7 12 11 11 17 -5z m597 -18 c0 -12 -6 -9
-26 13 -19 22 -19 22 4 8 12 -8 22 -17 22 -21z m465 14 c-3 -3 -11 0 -18 7 -9
10 -8 11 6 5 10 -3 15 -9 12 -12z m-544 -5 c-6 -8 -7 -18 -3 -22 4 -5 1 -5 -6
-1 -10 6 -10 11 -1 22 6 8 14 14 16 14 3 0 0 -6 -6 -13z m-391 -12 c0 -12 -19
-12 -23 0 -4 9 -1 12 9 8 7 -3 14 -7 14 -8z m850 11 c0 -2 -8 -10 -17 -17 -16
-13 -17 -12 -4 4 13 16 21 21 21 13z m-555 -24 c-3 -3 -11 0 -18 7 -9 10 -8
11 6 5 10 -3 15 -9 12 -12z m371 -10 c-17 -16 -18 -16 -5 5 7 12 15 20 18 17
3 -2 -3 -12 -13 -22z m104 24 c0 -2 -8 -10 -17 -17 -16 -13 -17 -12 -4 4 13
16 21 21 21 13z m133 -22 c-10 -15 -19 -22 -21 -15 -2 7 4 19 14 26 26 20 27
19 7 -11z m-686 -1 c0 -9 -4 -10 -14 -2 -7 6 -13 12 -13 14 0 1 6 2 13 2 8 0
14 -6 14 -14z m-173 -22 c-2 -3 -12 3 -22 13 -16 17 -16 18 5 5 12 -7 20 -15
17 -18z m86 15 c0 -2 -7 -9 -15 -16 -13 -11 -14 -10 -9 4 5 14 24 23 24 12z
m60 -20 c0 -2 -8 -10 -17 -17 -16 -13 -17 -12 -4 4 13 16 21 21 21 13z m373
-11 c-3 -9 -8 -14 -10 -11 -3 3 -2 9 2 15 9 16 15 13 8 -4z m87 5 c0 -5 -4
-10 -10 -10 -5 0 -10 5 -10 10 0 6 5 10 10 10 6 0 10 -4 10 -10z m-390 -4 c0
-2 -8 -10 -17 -17 -16 -13 -17 -12 -4 4 13 16 21 21 21 13z m226 -15 c0 -16
-3 -17 -14 -9 -12 10 -7 19 13 28 1 0 1 -9 1 -19z m-410 -19 c-17 -16 -18 -16
-5 5 7 12 15 20 18 17 3 -2 -3 -12 -13 -22z m701 13 c0 -8 -4 -12 -9 -9 -5 3
-6 10 -3 15 9 13 12 11 12 -6z m88 5 c3 -6 -1 -7 -9 -4 -18 7 -21 14 -7 14 6
0 13 -4 16 -10z m-956 -14 c9 -10 7 -17 -6 -27 -16 -12 -17 -12 -6 2 10 12 10
18 1 27 -7 7 -9 12 -6 12 3 0 11 -6 17 -14z m101 4 c0 -5 -5 -10 -11 -10 -5 0
-7 5 -4 10 3 6 8 10 11 10 2 0 4 -4 4 -10z m303 -6 c-7 -20 -29 -23 -29 -5 0
9 8 17 17 17 9 0 15 -6 12 -12z m88 -1 c11 -13 11 -15 1 -9 -9 5 -22 0 -37
-14 -17 -16 -25 -18 -30 -9 -5 7 -4 10 3 5 6 -3 19 5 29 18 22 30 18 29 34 9z
m296 10 c-4 -3 -1 -13 6 -21 10 -13 9 -14 -1 -8 -7 4 -20 2 -29 -6 -14 -11
-13 -8 1 15 10 15 21 27 24 27 3 0 2 -3 -1 -7z m-857 -25 c0 -6 -6 -5 -15 2
-8 7 -15 14 -15 16 0 2 7 1 15 -2 8 -4 15 -11 15 -16z m691 9 c-6 -8 -7 -18
-3 -23 4 -4 -1 -2 -10 5 -19 14 -25 26 -9 16 5 -3 12 -1 16 5 3 5 9 10 12 10
3 0 0 -6 -6 -13z m-391 -19 c0 -6 -6 -5 -15 2 -8 7 -15 14 -15 16 0 2 7 1 15
-2 8 -4 15 -11 15 -16z m85 12 c3 -5 1 -10 -4 -10 -6 0 -11 5 -11 10 0 6 2 10
4 10 3 0 8 -4 11 -10z m385 6 c0 -3 -4 -8 -10 -11 -5 -3 -10 -1 -10 4 0 6 5
11 10 11 6 0 10 -2 10 -4z m-552 -29 c8 -10 6 -13 -7 -13 -11 0 -17 6 -14 13
3 7 6 13 8 13 1 0 7 -6 13 -13z m393 -4 c11 -15 11 -16 -1 -6 -11 10 -17 10
-29 0 -14 -11 -14 -10 -2 6 7 9 15 17 16 17 1 0 9 -8 16 -17z m-470 -10 c12
-16 12 -17 -2 -6 -9 7 -19 10 -22 6 -4 -3 -7 -1 -7 5 0 17 16 15 31 -5z m764
7 c3 -6 -1 -7 -9 -4 -18 7 -21 14 -7 14 6 0 13 -4 16 -10z m-855 -4 c0 -2 -7
-9 -15 -16 -13 -11 -14 -10 -9 4 5 14 24 23 24 12z m222 -8 c-9 -9 -9 -15 1
-27 11 -14 10 -14 -6 -2 -13 10 -15 17 -6 27 6 8 14 14 17 14 3 0 1 -5 -6 -12z
m384 -7 c0 -11 -5 -17 -13 -14 -10 4 -11 9 -2 19 15 18 15 18 15 -5z m-166 -6
c-6 -8 -9 -19 -5 -24 4 -7 0 -8 -10 -5 -14 6 -14 8 1 25 20 22 32 26 14 4z
m240 11 c0 -2 -8 -10 -17 -17 -16 -13 -17 -12 -4 4 13 16 21 21 21 13z m-620
-9 c0 -2 -8 -11 -18 -20 -15 -14 -19 -15 -19 -2 0 8 4 12 8 9 4 -2 10 0 14 6
6 10 15 14 15 7z m457 -12 c0 -8 -4 -12 -9 -9 -5 3 -6 10 -3 15 9 13 12 11 12
-6z m223 0 c-6 -8 -9 -19 -5 -24 3 -7 0 -8 -9 -5 -20 8 -20 14 2 30 23 18 27
17 12 -1z m61 -2 c13 -16 12 -17 -3 -4 -17 13 -22 21 -14 21 2 0 10 -8 17 -17z
m99 2 c11 -13 10 -14 -4 -9 -9 3 -16 10 -16 15 0 13 6 11 20 -6z m-759 -12
c13 -17 13 -17 -6 -3 -11 8 -22 16 -24 17 -2 2 0 3 6 3 6 0 17 -8 24 -17z
m202 4 c4 3 7 4 7 1 0 -3 -8 -12 -17 -19 -10 -7 -15 -9 -11 -5 4 5 2 16 -5 25
-10 14 -10 14 4 4 9 -7 19 -10 22 -6z m-253 -37 c-11 -16 -26 -33 -32 -36 -7
-4 1 9 16 29 34 44 46 50 16 7z m176 8 c10 -13 12 -17 4 -11 -11 10 -18 9 -34
-5 -21 -17 -21 -17 -3 4 9 11 14 24 10 27 -3 4 -4 7 -1 7 3 0 13 -10 24 -22z
m602 2 c-15 -24 -24 -25 -31 -6 -4 10 -1 13 7 10 8 -3 17 -1 21 5 3 6 8 11 11
11 2 0 -1 -9 -8 -20z m-670 -21 c22 -25 22 -27 5 -40 -16 -13 -17 -12 -5 2 11
14 9 20 -12 37 -14 10 -22 22 -19 26 3 3 7 5 7 4 1 -2 11 -15 24 -29z m200 12
c-7 -11 -16 -17 -21 -14 -4 3 0 11 10 19 24 18 25 17 11 -5z m153 -4 c-10 -9
-11 -8 -5 6 3 10 9 15 12 12 3 -3 0 -11 -7 -18z m120 -4 l24 -28 -27 24 c-16
13 -32 20 -39 16 -8 -5 -10 -4 -5 3 11 18 20 15 47 -15z m284 7 c10 -11 16
-20 13 -20 -3 0 -13 9 -23 20 -10 11 -16 20 -13 20 3 0 13 -9 23 -20z m-475 0
c0 -5 -5 -10 -11 -10 -5 0 -7 5 -4 10 3 6 8 10 11 10 2 0 4 -4 4 -10z m300 -8
c0 -4 -9 -13 -20 -20 -19 -12 -20 -11 -8 8 13 20 28 27 28 12z m-467 -16 c4
-10 1 -13 -9 -9 -7 3 -14 9 -14 14 0 14 17 10 23 -5z m578 -3 c13 -16 12 -17
-3 -4 -17 13 -22 21 -14 21 2 0 10 -8 17 -17z m-748 -9 c-7 -20 -29 -23 -29
-5 0 9 8 17 17 17 9 0 15 -6 12 -12z m697 12 c0 -2 -6 -9 -14 -15 -11 -9 -16
-9 -22 0 -4 7 -3 9 4 5 6 -3 13 -2 17 4 6 10 15 14 15 6z m-480 -21 c-7 -8 -9
-15 -4 -15 5 0 -2 -7 -14 -16 -14 -9 -21 -22 -18 -31 3 -8 2 -12 -3 -9 -12 8
-44 -31 -36 -43 3 -7 0 -8 -9 -5 -12 4 -4 20 36 70 28 35 54 64 56 64 2 0 -1
-7 -8 -15z m168 1 c-2 -1 -12 -8 -22 -16 -18 -14 -18 -14 -6 7 8 12 18 19 23
16 4 -3 7 -6 5 -7z m-259 -11 c6 3 8 0 5 -9 -3 -8 -12 -17 -20 -20 -9 -3 -12
-1 -9 5 4 5 1 18 -7 27 -12 15 -11 16 4 4 9 -8 22 -11 27 -7z m171 7 c0 -4
-10 -13 -22 -21 -23 -14 -23 -14 -4 8 20 22 26 25 26 13z m219 1 c14 11 14 10
2 -6 -10 -13 -17 -15 -27 -6 -8 6 -14 14 -14 17 0 3 5 1 12 -6 9 -9 15 -9 27
1z m97 -26 c5 -9 4 -9 -6 0 -11 10 -18 9 -34 -5 -19 -15 -20 -16 -7 0 7 9 10
22 6 29 -6 8 -2 8 13 0 12 -6 24 -17 28 -24z m-561 -17 c10 -11 16 -20 13 -20
-3 0 -13 9 -23 20 -10 11 -16 20 -13 20 3 0 13 -9 23 -20z m290 2 c-3 -3 -11
0 -18 7 -9 10 -8 11 6 5 10 -3 15 -9 12 -12z m96 1 c11 -15 11 -16 -1 -6 -11
10 -17 10 -29 0 -14 -11 -14 -10 -2 6 7 9 15 17 16 17 1 0 9 -8 16 -17z m219
13 c0 -2 -8 -10 -17 -17 -16 -13 -17 -12 -4 4 13 16 21 21 21 13z m-171 -22
c-11 -14 -7 -21 27 -51 21 -19 31 -30 22 -23 -15 10 -21 10 -35 -1 -16 -12
-17 -12 -6 2 11 13 10 19 -6 33 -12 11 -25 15 -33 10 -7 -4 -2 5 11 19 26 29
42 37 20 11z m-459 2 c0 -2 -8 -10 -17 -17 -16 -13 -17 -12 -4 4 13 16 21 21
21 13z m241 -13 c13 -17 13 -17 -6 -3 -11 8 -22 16 -24 17 -2 2 0 3 6 3 6 0
17 -8 24 -17z m-174 0 c-4 -3 -1 -13 6 -22 10 -14 10 -14 -4 -4 -9 7 -20 9
-25 5 -4 -4 -2 1 5 11 7 9 16 17 19 17 3 0 2 -3 -1 -7z m223 -8 c-10 -12 -10
-18 1 -32 11 -15 10 -15 -9 1 -20 18 -21 20 -4 32 23 18 27 17 12 -1z m246 3
c4 -7 4 -10 -1 -6 -4 4 -15 2 -24 -5 -14 -11 -14 -10 -2 6 16 20 18 21 27 5z
m109 -8 c10 -11 16 -20 13 -20 -3 0 -13 9 -23 20 -10 11 -16 20 -13 20 3 0 13
-9 23 -20z m-61 -15 c-4 -8 -11 -15 -16 -15 -6 0 -5 6 2 15 7 8 14 15 16 15 2
0 1 -7 -2 -15z m-168 -25 c0 -9 -7 -16 -16 -16 -9 0 -16 7 -16 16 0 9 7 16 16
16 9 0 16 -7 16 -16z m-168 1 c16 13 16 13 2 -6 -8 -11 -15 -21 -16 -23 0 -1
-9 8 -20 20 -15 18 -16 20 -1 9 14 -11 20 -11 35 0z m72 -10 c-5 -11 -15 -23
-21 -27 -6 -3 -3 5 6 20 20 30 30 35 15 7z m-230 -5 c0 -2 -8 -10 -17 -17 -16
-13 -17 -12 -4 4 13 16 21 21 21 13z m454 -11 c-4 -8 -11 -15 -16 -15 -6 0 -5
6 2 15 7 8 14 15 16 15 2 0 1 -7 -2 -15z m-614 1 c0 -2 -8 -10 -17 -17 -16
-13 -17 -12 -4 4 13 16 21 21 21 13z m231 -13 c10 -12 11 -15 1 -9 -7 4 -20 2
-29 -6 -15 -12 -15 -11 -2 10 17 26 13 26 30 5z m299 -2 c0 -3 -10 -12 -22
-20 -21 -13 -22 -13 -10 2 8 9 11 21 7 26 -3 7 0 8 9 5 9 -3 16 -9 16 -13z
m-172 -17 c1 0 -8 -9 -20 -20 -18 -15 -20 -16 -9 -1 11 14 11 20 0 35 -13 16
-13 16 6 2 11 -8 21 -15 23 -16z m88 17 c-3 -5 9 -22 27 -38 18 -15 28 -24 21
-20 -7 5 -20 -2 -32 -18 -17 -22 -21 -23 -32 -10 -11 13 -10 14 2 10 8 -3 21
1 28 10 11 13 10 19 -9 39 -11 12 -18 26 -14 29 9 10 15 9 9 -2z m-169 -18
c-4 -3 -1 -13 6 -22 11 -14 10 -14 -5 -2 -16 12 -16 31 -1 31 4 0 3 -3 0 -7z
m130 -21 c11 8 12 7 7 -6 -8 -21 -18 -20 -35 2 -11 14 -11 15 1 5 10 -9 17
-10 27 -1z m-237 -21 c-5 -11 -15 -23 -21 -27 -6 -3 -3 5 6 20 20 30 30 35 15
7z m161 -18 c12 -16 12 -17 -2 -6 -9 7 -20 9 -24 5 -5 -4 -5 -1 -1 6 9 16 11
15 27 -5z m45 -22 c0 -11 -5 -17 -13 -14 -17 6 -17 20 0 26 6 3 12 6 12 6 1 1
1 -7 1 -18z"/>
<path d="M4632 3687 c-9 -11 -10 -17 -2 -22 15 -9 23 -1 18 21 -3 15 -4 16
-16 1z"/>
<path d="M3285 3078 c-2 -7 -11 -47 -20 -88 -25 -116 -73 -276 -111 -371 -19
-48 -34 -89 -34 -93 0 -18 38 1 132 63 57 39 166 102 243 142 77 40 140 76
140 82 0 5 -18 15 -40 22 -103 31 -212 117 -263 207 -27 49 -39 58 -47 36z"/>
<path d="M3130 2395 c-14 -8 -20 -14 -14 -15 5 0 19 7 30 15 24 18 16 19 -16
0z"/>
<path d="M3234 2184 c-18 -14 -18 -14 6 -3 31 14 36 19 24 19 -6 0 -19 -7 -30
-16z"/>
<path d="M3470 1910 c-8 -5 -10 -10 -5 -10 6 0 17 5 25 10 8 5 11 10 5 10 -5
0 -17 -5 -25 -10z"/>
<path d="M2810 2216 c0 -2 7 -7 16 -10 8 -3 12 -2 9 4 -6 10 -25 14 -25 6z"/>
<path d="M2540 1826 c0 -2 7 -7 16 -10 8 -3 12 -2 9 4 -6 10 -25 14 -25 6z"/>
<path d="M2411 1756 c10 -9 69 -36 69 -32 0 6 -55 36 -66 36 -4 0 -5 -2 -3 -4z"/>
<path d="M4440 1675 c-10 -12 -6 -23 24 -60 40 -48 46 -51 64 -33 21 21 14 65
-14 87 -31 25 -57 27 -74 6z"/>
<path d="M4549 1571 l-24 -19 45 -50 c47 -53 69 -62 90 -37 22 27 15 67 -19
97 -37 33 -60 35 -92 9z"/>
</g>
</svg>
